<svg width="16" height="12" viewBox="0 0 16 12" fill="none" xmlns="http://www.w3.org/2000/svg">
<path fill-rule="evenodd" clip-rule="evenodd" d="M2.005 5H11.585L8.295 1.71C8.115 1.53 8.005 1.28 8.005 1C8.005 0.45 8.455 0 9.005 0C9.285 0 9.535 0.11 9.715 0.29L14.715 5.29C14.895 5.48 15.005 5.73 15.005 6C15.005 6.27 14.895 6.53 14.715 6.71L9.715 11.71C9.535 11.89 9.285 12 9.005 12C8.455 12 8.005 11.55 8.005 11C8.005 10.72 8.115 10.47 8.295 10.29L11.585 7H1.995C1.445 7 0.994995 6.55 0.994995 6C0.994995 5.45 1.455 5 2.005 5Z" fill="white"/>
</svg>
