<svg width="220" height="134" viewBox="0 0 220 134" fill="none" xmlns="http://www.w3.org/2000/svg">
<path fill-rule="evenodd" clip-rule="evenodd" d="M28.7911 126.209C12.5548 126.298 7.25468 120.971 4.16897 114.119C1.08326 107.267 0.495065 99.2726 0.266285 91.5224C-0.264006 73.5666 -0.0133359 56.0995 1.11786 38.1827C1.49068 32.2647 1.56977 25.7833 3.38094 20.2792C5.39689 14.1529 9.64487 9.36904 13.8448 6.47822C14.2614 6.19154 14.6858 5.91262 15.1172 5.64218C20.7577 2.10103 27.0844 0.983253 33.7416 0.81661L192.675 0.000344695C201.813 -0.0399037 214.486 3.4377 217.745 14.0414C221.077 24.8788 219.535 41.8714 219.719 49.693C220.296 74.2473 219.851 75.5148 219.57 91.2456C219.222 110.722 214.885 116.356 206.079 121.606C202.483 123.751 190.503 125.745 181.789 126.298C167.998 127.173 44.1561 127.758 19.9944 125.718L28.7911 126.209Z" fill="#FF405A"/>
<path fill-rule="evenodd" clip-rule="evenodd" d="M189.533 69.8473C189.533 69.8473 205.048 84.4695 208.211 92.8228C211.375 101.175 209.139 106.628 198.872 108.02C188.606 109.412 163.082 80.0612 163.082 80.0612C163.082 80.0612 178.512 68.3341 189.533 69.8473Z" fill="#FF8C98"/>
<path fill-rule="evenodd" clip-rule="evenodd" d="M131.556 18.155C131.556 18.155 145.042 12.4842 152.09 20.0537C159.138 27.6233 155.131 44.5071 143.563 43.8074C126.302 42.7637 124.16 36.6728 121.898 32.7574C119.636 28.842 131.556 18.155 131.556 18.155Z" fill="black"/>
<path fill-rule="evenodd" clip-rule="evenodd" d="M119.723 39.892C119.984 39.892 163.924 40.3269 168.883 42.0668C173.843 43.8074 192.898 67.8222 195.856 73.1294C196.58 74.4293 196.52 76.9353 196.113 76.4975C191.089 71.0993 185.415 74.6087 185.415 74.6087C185.415 74.6087 172.45 81.3951 164.881 90.6183C163.525 92.2699 158.216 92.9513 158.263 96.4487C158.317 100.425 163.836 107.15 163.836 107.15L73.2599 100.798L37.1515 86.5893C37.1515 86.5893 54.3001 63.0051 85.1798 49.2021C104.061 40.7619 119.723 39.892 119.723 39.892Z" fill="#00AD00"/>
<path fill-rule="evenodd" clip-rule="evenodd" d="M150.494 59.1736C149.955 68.1532 152.385 77.2042 157.347 84.7073C157.909 85.5568 159.285 84.7617 158.718 83.9052C153.897 76.6139 151.559 67.899 152.082 59.1736C152.143 58.1526 150.554 58.1568 150.494 59.1736Z" fill="black"/>
<path fill-rule="evenodd" clip-rule="evenodd" d="M185.415 74.6088C185.415 74.6088 191.089 71.0995 196.112 76.4977C196.52 76.9355 196.58 74.4295 195.856 73.1295C195.268 72.076 194.04 70.2776 192.419 68.0688C191.623 67.684 190.798 67.4192 189.939 67.2999C176.801 65.4732 160.789 82.0915 160.789 82.0915C161.218 84.135 163.512 86.2675 166.878 88.366C174.524 80.3128 185.415 74.6088 185.415 74.6088Z" fill="#E7E7E7"/>
<path fill-rule="evenodd" clip-rule="evenodd" d="M89.4434 48.071C89.4434 48.071 79.6115 81.3952 76.9318 105.779L161.51 106.632C161.51 106.632 161.365 97.573 155.583 87.9677C150.123 78.8984 144.608 72.0625 152.438 40.6638L153.107 40.6914C153.107 40.6914 153.773 39.544 151.51 39.3124C149.248 39.08 146.028 38.9353 145.013 41.1977C143.998 43.4593 134.775 83.7445 133.645 98.0136C133.645 98.0136 105.192 99.841 93.7937 96.0124C93.7937 96.0124 92.0539 61.9051 94.3155 51.8127L89.4434 48.071Z" fill="#C0007A"/>
<path fill-rule="evenodd" clip-rule="evenodd" d="M132.977 17.4723C132.977 17.4723 140.383 23.6783 136.284 32.1481C131.668 41.6849 115.372 34.4105 115.372 34.4105L132.977 17.4723Z" fill="#F10097"/>
<path fill-rule="evenodd" clip-rule="evenodd" d="M98.3187 52.1601C98.3187 52.1601 94.8128 71.1679 103.208 79.4781C104.088 80.3502 105.508 80.4137 106.445 79.6024C108.105 78.1669 110.597 75.2393 112.067 69.8397C112.067 69.8397 114.451 76.7653 117.622 80.007C118.356 80.7569 119.491 80.9483 120.427 80.4723C125.559 77.859 142.603 67.2878 136.11 44.7191C134.968 40.7465 130.926 38.2991 126.88 39.1528C126.815 39.1669 126.75 39.181 126.683 39.1959C120.071 40.6752 98.3187 52.1601 98.3187 52.1601Z" fill="#E7E7E7"/>
<path fill-rule="evenodd" clip-rule="evenodd" d="M57.7538 25.9126C61.5527 33.511 70.7364 34.0625 70.7364 34.0625C70.7364 34.0625 114.415 49.1147 123.029 40.6745C124.885 38.8563 126.488 36.7358 127.876 34.4608C130.13 33.5696 135.778 30.4613 132.929 22.4081C134.223 17.5141 134.676 12.8121 134.34 9.31328C134.014 5.90629 133.378 3.01829 130.763 0.318115L61.1347 0.676114C55.3657 5.91052 54.5544 19.5131 57.7538 25.9126Z" fill="black"/>
<path fill-rule="evenodd" clip-rule="evenodd" d="M68.3676 17.9475C66.5734 22.6904 67.5598 29.3964 69.6824 34.0016C72.946 41.0854 79.7388 54.887 83.8463 60.1073C89.4147 67.184 98.8116 66.3013 104.844 64.3059C104.844 64.3059 106.816 71.4764 114.357 69.5043C120.956 67.7785 130.751 63.4769 132.086 52.4029C132.441 49.4655 131.872 46.4963 130.606 43.823C129.482 41.4469 127.695 37.9587 125.146 33.7722C125.146 33.7722 132.455 31.8 130.715 23.5632C128.975 15.3264 125.146 14.9783 122.014 15.9061C118.881 16.8347 118.07 19.967 118.65 22.5196C119.23 25.0714 118.65 27.1601 116.678 26.812C114.705 26.4639 113.778 25.6512 109.833 16.9505C105.888 8.24974 92.6628 3.84078 78.7411 8.24974C72.8246 10.1231 69.8419 14.0505 68.3676 17.9475Z" fill="#F8A9AF"/>
<path fill-rule="evenodd" clip-rule="evenodd" d="M181.016 53.7785C176.97 54.4401 166.273 56.6227 166.273 61.2089C166.273 66.8642 181.225 62.4531 184.668 58.1338C183.465 56.6665 182.237 55.1992 181.016 53.7785Z" fill="#00D000"/>
<path fill-rule="evenodd" clip-rule="evenodd" d="M58.4943 74.6446C59.2986 72.0221 55.112 71.0188 52.2586 70.6424C50.2723 72.4034 48.4696 74.103 46.8646 75.6911C51.1274 77.2806 57.6229 77.4853 58.4943 74.6446Z" fill="#00D000"/>
<path fill-rule="evenodd" clip-rule="evenodd" d="M70.6206 8.01783C70.6206 8.01783 68.068 15.3268 75.6086 16.7185C83.1499 18.111 90.6325 15.2689 88.892 11.0922C87.1528 6.91559 78.7409 11.0336 81.1198 5.29153C83.498 -0.451282 70.3883 4.769 70.6206 8.01783Z" fill="black"/>
<path fill-rule="evenodd" clip-rule="evenodd" d="M70.8199 12.0407C70.3447 10.6073 70.1922 9.07288 70.4252 7.57663C70.469 7.29418 70.3532 7.0075 70.0552 6.92559C69.8038 6.85639 69.4479 7.01103 69.4034 7.29489C69.1415 8.98108 69.2601 10.6998 69.7989 12.3224C69.8885 12.5936 70.1639 12.7708 70.4499 12.6924C70.7154 12.619 70.9103 12.3139 70.8199 12.0407Z" fill="white"/>
<path fill-rule="evenodd" clip-rule="evenodd" d="M131.668 91.8422C131.668 91.8422 125.167 99.041 120.442 96.8867C115.717 94.7316 123.995 84.6893 126.979 83.0949C129.965 81.5005 131.668 91.8422 131.668 91.8422Z" fill="#FF8C98"/>
<path fill-rule="evenodd" clip-rule="evenodd" d="M218.638 102.954L0.265503 91.4591C0.266209 91.4803 0.266209 91.5008 0.266209 91.5227C0.494989 99.2722 1.08318 107.267 4.1696 114.12C6.72713 119.799 10.8127 124.427 21.3797 125.795L19.9943 125.718C20.5599 125.766 21.1805 125.812 21.8535 125.857C23.9146 126.1 26.2144 126.223 28.791 126.21L28.6173 126.2C65.2335 127.652 169.22 127.095 181.789 126.299C190.503 125.745 202.483 123.75 206.079 121.607C212.793 117.603 216.907 113.37 218.638 102.954Z" fill="#C40025"/>
<path fill-rule="evenodd" clip-rule="evenodd" d="M41.1536 118.635V106.106L55.5971 99.4934L86.9202 102.347V92.8806L95.0123 88.358L124.396 89.3119L124.973 102.391L115.894 107.42L153.656 111.588V125.074L142.162 133.514L98.6021 127.097L55.7729 126.823L55.5971 120.763L41.1536 118.635Z" fill="white"/>
<path fill-rule="evenodd" clip-rule="evenodd" d="M86.9202 92.8809L115.894 94.1858L124.731 89.2452L95.0122 88.3583L86.9202 92.8809Z" fill="#FFD400"/>
<path fill-rule="evenodd" clip-rule="evenodd" d="M65.5157 78.524L69.7793 78.4372C69.7793 78.4372 74.5646 81.5688 76.7401 87.0511C78.9156 92.5326 84.6577 101.407 83.5265 102.626C82.3961 103.843 78.2194 106.454 73.6078 99.754C68.9962 93.0544 65.5157 78.524 65.5157 78.524Z" fill="#FF8C98"/>
<path fill-rule="evenodd" clip-rule="evenodd" d="M75.4709 90.4135L79.6356 103.359L75.9659 102.999L75.4709 90.4135Z" fill="black"/>
<path fill-rule="evenodd" clip-rule="evenodd" d="M76.3311 87.5648C78.6295 91.685 80.6998 95.9315 82.5103 100.288C82.6769 100.687 83.0356 100.962 83.4875 100.843C83.8632 100.744 84.207 100.261 84.0425 99.8653C82.1784 95.3801 80.0692 91.005 77.7031 86.7627C77.2045 85.8702 75.8319 86.6702 76.3311 87.5648Z" fill="black"/>
<path fill-rule="evenodd" clip-rule="evenodd" d="M51.5073 79.5681C51.5073 79.5681 35.7589 84.705 30.7123 88.3577C25.6657 92.0105 25.2308 100.015 26.4488 103.67C27.6669 107.325 36.107 113.066 44.8946 107.759C53.6829 102.451 59.425 86.9639 59.425 86.9639L51.5073 79.5681Z" fill="#F8A9AF"/>
<path fill-rule="evenodd" clip-rule="evenodd" d="M93.6786 85.1149V90.8203C93.6786 91.3845 95.3238 91.8421 97.3546 91.8421C99.3847 91.8421 101.031 91.3845 101.031 90.8203V85.1149H93.6786Z" fill="#FFAF00"/>
<path fill-rule="evenodd" clip-rule="evenodd" d="M108.759 85.8114V91.5754C108.759 92.1403 110.405 92.5978 112.435 92.5978C114.466 92.5978 116.111 92.1403 116.111 91.5754V85.8114H108.759Z" fill="#FFAF00"/>
<path fill-rule="evenodd" clip-rule="evenodd" d="M116.112 85.8115C116.112 86.3756 114.466 86.8332 112.435 86.8332C110.405 86.8332 108.759 86.3756 108.759 85.8115C108.759 85.2466 110.405 84.789 112.435 84.789C114.466 84.789 116.112 85.2466 116.112 85.8115Z" fill="#FFD400"/>
<path fill-rule="evenodd" clip-rule="evenodd" d="M101.031 85.115C101.031 85.6799 99.3848 86.1374 97.3547 86.1374C95.3247 86.1374 93.6787 85.6799 93.6787 85.115C93.6787 84.5501 95.3247 84.0925 97.3547 84.0925C99.3848 84.0925 101.031 84.5501 101.031 85.115Z" fill="#FFD400"/>
<path fill-rule="evenodd" clip-rule="evenodd" d="M70.0404 110.019L78.7383 102.347L55.5968 99.4932L41.1533 106.106L70.0404 110.019Z" fill="#FFAF00"/>
<path fill-rule="evenodd" clip-rule="evenodd" d="M141.988 119.766L153.656 111.587L113.581 106.645L103.562 114.561L141.988 119.766Z" fill="#98D34E"/>
<path fill-rule="evenodd" clip-rule="evenodd" d="M78.7382 102.347L70.0403 110.019H70.041L103.562 114.561L113.581 106.645L78.7382 102.347Z" fill="#B478B8"/>
<path fill-rule="evenodd" clip-rule="evenodd" d="M70.0404 110.019V122.891L103.562 127.828V114.561L70.0404 110.019Z" fill="#9B4A9F"/>
<path fill-rule="evenodd" clip-rule="evenodd" d="M70.0404 110.019L41.1533 106.106V118.635L70.0404 122.891V110.019Z" fill="#FB9500"/>
<path fill-rule="evenodd" clip-rule="evenodd" d="M103.562 127.828L142.162 133.514L141.988 119.766L103.562 114.561V127.828Z" fill="#77C11C"/>
<path fill-rule="evenodd" clip-rule="evenodd" d="M51.5073 79.5681C51.5073 79.5681 63.6016 75.8264 69.7794 78.4369C75.9572 81.0474 75.261 103.235 77.0884 107.411C78.9151 111.587 77.0347 115.91 72.2494 114.344C72.2494 114.344 74.7391 119.766 70.823 120.376C66.9084 120.984 65.3422 116.547 65.3422 116.547C65.3422 116.547 64.1242 119.941 60.2081 118.113C56.2927 116.286 56.364 112.009 56.364 112.009C56.364 112.009 51.2461 114.468 49.5062 108.068C47.7664 101.669 47.157 84.7891 51.5073 79.5681Z" fill="#F8A9AF"/>
<path fill-rule="evenodd" clip-rule="evenodd" d="M141.988 119.766L153.656 111.587V125.074L142.162 133.514L141.988 119.766Z" fill="#51BB1E"/>
<path fill-rule="evenodd" clip-rule="evenodd" d="M115.894 105.745V112.01C115.894 112.63 117.702 113.133 119.931 113.133C122.161 113.133 123.969 112.63 123.969 112.01V105.745H115.894Z" fill="#51BB1E"/>
<path fill-rule="evenodd" clip-rule="evenodd" d="M123.968 105.745C123.968 106.365 122.161 106.867 119.931 106.867C117.702 106.867 115.894 106.365 115.894 105.745C115.894 105.125 117.702 104.622 119.931 104.622C122.161 104.622 123.968 105.125 123.968 105.745Z" fill="#98D34E"/>
<path fill-rule="evenodd" clip-rule="evenodd" d="M96.2168 103.513V109.777C96.2168 110.397 98.0244 110.9 100.254 110.9C102.484 110.9 104.291 110.397 104.291 109.777V103.513H96.2168Z" fill="#801687"/>
<path fill-rule="evenodd" clip-rule="evenodd" d="M104.291 103.512C104.291 104.132 102.483 104.635 100.254 104.635C98.0243 104.635 96.2167 104.132 96.2167 103.512C96.2167 102.892 98.0243 102.39 100.254 102.39C102.483 102.39 104.291 102.892 104.291 103.512Z" fill="#FFD400"/>
<path fill-rule="evenodd" clip-rule="evenodd" d="M79.636 100.38V106.645C79.636 107.265 81.4429 107.768 83.6728 107.768C85.9027 107.768 87.7097 107.265 87.7097 106.645V100.38H79.636Z" fill="#801687"/>
<path fill-rule="evenodd" clip-rule="evenodd" d="M87.7097 100.38C87.7097 101 85.902 101.503 83.6728 101.503C81.4436 101.503 79.636 101 79.636 100.38C79.636 99.7599 81.4436 99.2571 83.6728 99.2571C85.902 99.2571 87.7097 99.7599 87.7097 100.38Z" fill="#B478B8"/>
<path fill-rule="evenodd" clip-rule="evenodd" d="M134.089 107.755V114.019C134.089 114.639 135.897 115.142 138.126 115.142C140.355 115.142 142.163 114.639 142.163 114.019V107.755H134.089Z" fill="#51BB1E"/>
<path fill-rule="evenodd" clip-rule="evenodd" d="M142.163 107.755C142.163 108.375 140.355 108.877 138.126 108.877C135.897 108.877 134.089 108.375 134.089 107.755C134.089 107.134 135.897 106.632 138.126 106.632C140.355 106.632 142.163 107.134 142.163 107.755Z" fill="#98D34E"/>
<path fill-rule="evenodd" clip-rule="evenodd" d="M124.972 102.391L124.731 89.2449L115.895 94.1855V107.42L124.972 102.391Z" fill="#FFAF00"/>
<path fill-rule="evenodd" clip-rule="evenodd" d="M130.164 68.0826C130.164 68.0826 144.868 71.1281 153.047 75.3916C161.226 79.6551 174.278 83.1348 194.725 85.5723C194.725 85.5723 208.908 87.1378 209.951 97.4047C209.951 97.4047 211.375 108.068 196.378 108.629C179.987 109.243 155.919 95.1423 155.919 95.1423C155.919 95.1423 153.743 97.1434 147.566 97.4047C147.566 97.4047 144.694 101.407 140.344 100.45C135.994 99.4926 136.429 96.9697 136.429 96.9697C136.429 96.9697 130.251 96.9697 129.381 91.14C129.381 91.14 122.862 93.163 123.551 84.5273C123.551 84.5273 118.504 91.6625 114.154 92.3588C109.803 93.0543 112.153 88.1285 112.849 86.5891C113.545 85.0491 124.334 67.474 130.164 68.0826Z" fill="#F8A9AF"/>
<path fill-rule="evenodd" clip-rule="evenodd" d="M159.715 91.7231L161.906 98.3464C161.906 98.3464 156.892 95.8221 156.328 95.3864L159.715 91.7231Z" fill="black"/>
<path fill-rule="evenodd" clip-rule="evenodd" d="M115.894 94.1856L86.9204 92.8807V105.148L115.894 107.42V94.1856Z" fill="#FFC200"/>
<path fill-rule="evenodd" clip-rule="evenodd" d="M55.5967 120.763L55.7725 126.823C68.7353 126.995 83.6484 127.079 98.6017 127.098L55.5967 120.763Z" fill="#FFC200"/>
<path fill-rule="evenodd" clip-rule="evenodd" d="M124.549 21.3042C122.902 21.8585 121.681 23.3788 121.611 25.1342C121.575 26.0175 121.87 26.915 122.466 27.5738C123.105 28.2813 124.059 28.5355 124.957 28.7212C125.377 28.8081 125.816 28.5991 125.934 28.1669C126.042 27.7729 125.802 27.2765 125.38 27.1897C124.755 27.0598 124.074 26.9454 123.648 26.5125C123.504 26.3664 123.369 26.1312 123.31 25.9512C123.203 25.6256 123.184 25.4964 123.2 25.1342C123.202 25.0615 123.206 24.9894 123.215 24.9174C123.199 25.0417 123.244 24.791 123.243 24.7931C123.274 24.6554 123.318 24.5227 123.363 24.3892C123.413 24.2424 123.599 23.9041 123.764 23.6923C123.705 23.7679 123.808 23.6443 123.827 23.6231C123.874 23.5709 123.921 23.5193 123.971 23.4685C124.091 23.3491 124.191 23.2609 124.261 23.2107C124.511 23.0342 124.771 22.9043 124.971 22.8365C125.378 22.7002 125.644 22.29 125.526 21.8592C125.417 21.4631 124.957 21.1672 124.549 21.3042Z" fill="black"/>
<path fill-rule="evenodd" clip-rule="evenodd" d="M72.0406 45.4961C75.3557 52.3955 78.493 59.9805 84.8678 64.667C88.1265 67.0628 92.0369 68.4638 96.0801 68.6361C99.9009 68.7999 103.657 67.8297 107.139 66.3214C111.331 64.506 115.099 61.808 118.503 58.7858C120.139 57.3361 117.734 54.946 116.107 56.39C110.912 60.9995 104.304 65.1726 97.1365 65.263C93.6603 65.3067 90.3522 64.2652 87.4571 62.3531C84.5896 60.4572 82.3505 57.6285 80.5513 54.7334C78.3864 51.2509 76.7397 47.4739 74.9674 43.7852C74.5706 42.9604 73.3928 42.7422 72.6485 43.1772C71.8054 43.6701 71.643 44.6678 72.0406 45.4961Z" fill="black"/>
<path fill-rule="evenodd" clip-rule="evenodd" d="M127.415 78.3931C124.959 81.3376 122.958 84.6492 120.283 87.4115C119.045 88.6917 117.625 89.914 115.941 90.5615C114.467 91.1285 111.229 91.6235 111.907 89.0469C112.646 86.2408 114.439 83.8153 116.367 81.704C117.055 80.9506 115.935 79.8237 115.244 80.5813C113.269 82.742 111.479 85.176 110.562 87.987C110.193 89.1196 109.996 90.2776 110.693 91.3319C111.354 92.3289 112.438 92.6318 113.576 92.6191C118.044 92.5718 121.375 88.8591 123.913 85.606C125.481 83.5964 126.905 81.4745 128.538 79.5165C129.189 78.7362 128.071 77.6072 127.415 78.3931Z" fill="black"/>
<path fill-rule="evenodd" clip-rule="evenodd" d="M147.816 88.0898C145.326 90.0909 143.469 92.8017 142.439 95.821C142.108 96.7905 143.642 97.2071 143.971 96.2433C144.916 93.4732 146.662 91.0434 148.94 89.2132C149.274 88.9442 149.219 88.3694 148.94 88.0898C148.609 87.7593 148.152 87.82 147.816 88.0898Z" fill="black"/>
<path fill-rule="evenodd" clip-rule="evenodd" d="M145.752 92.5327C145.939 92.431 146.225 92.5757 146.391 92.6675C146.676 92.8257 146.784 93.0404 146.83 93.363C146.937 94.1214 146.738 94.9687 146.513 95.689C146.037 97.2121 145.039 98.5551 143.615 99.3036C142.301 99.992 140.624 100.128 139.296 99.4067C138.065 98.7401 137.165 97.4599 137.174 96.0343C137.179 94.9285 137.501 93.8008 137.705 92.7184C137.914 91.6013 138.123 90.4849 138.333 89.3679C138.521 88.3687 136.99 87.9401 136.801 88.9449L136.071 92.8363C135.85 94.0183 135.489 95.2759 135.605 96.4869C135.792 98.4223 137.085 100.161 138.854 100.955C140.793 101.826 143.096 101.541 144.872 100.411C146.669 99.2668 147.866 97.3074 148.266 95.2328C148.479 94.1285 148.645 92.7162 147.833 91.7997C147.147 91.0244 145.884 90.6544 144.951 91.1614C144.052 91.6486 144.853 93.0206 145.752 92.5327Z" fill="black"/>
<path fill-rule="evenodd" clip-rule="evenodd" d="M130.902 85.1789C130.037 88.0846 128.769 91.1435 129.514 94.2306C129.839 95.58 130.821 96.6137 131.994 97.2993C133.308 98.0676 134.906 98.6106 136.421 98.2053C137.408 97.9419 136.989 96.4089 135.999 96.6737C134.831 96.9865 133.539 96.4104 132.564 95.7854C131.549 95.1344 131.013 94.2263 130.934 93.0231C130.763 90.4056 131.702 88.062 132.434 85.6019C132.727 84.6197 131.194 84.1996 130.902 85.1789Z" fill="black"/>
<path fill-rule="evenodd" clip-rule="evenodd" d="M124.978 81.5534C123.657 83.5277 122.863 86.0916 123.085 88.479C123.182 89.5092 123.454 90.5288 124.117 91.3437C124.798 92.179 125.843 92.5137 126.878 92.6373C128.157 92.7905 129.531 92.5766 130.561 91.7674C130.899 91.5019 130.839 90.9221 130.561 90.6439C130.228 90.3107 129.776 90.3777 129.437 90.6439C128.703 91.2215 127.363 91.1834 126.495 90.9687C125.555 90.7364 125.091 90.2245 124.832 89.303C124.186 86.9983 125.064 84.2769 126.349 82.3556C126.92 81.5033 125.544 80.7068 124.978 81.5534Z" fill="black"/>
<path fill-rule="evenodd" clip-rule="evenodd" d="M147.361 98.1428C152.136 98.4259 156.817 96.1191 159.592 92.2475C160.189 91.4157 158.811 90.6213 158.22 91.446C155.764 94.8707 151.549 96.8026 147.361 96.554C146.34 96.4933 146.344 98.0828 147.361 98.1428Z" fill="black"/>
<path fill-rule="evenodd" clip-rule="evenodd" d="M48.5326 89.8177C48.2805 96.1134 47.2001 102.616 49.3961 108.701C50.0253 110.444 50.6897 112.187 52.551 112.884C54.2655 113.528 56.3528 113.058 56.8597 111.11C57.1175 110.121 55.5859 109.698 55.3282 110.689C54.9546 112.121 52.8582 111.62 52.1083 110.767C51.6663 110.263 51.4064 109.505 51.16 108.89C50.8027 107.998 50.5132 107.077 50.283 106.145C48.9696 100.817 49.9052 95.2194 50.1213 89.8177C50.1623 88.7952 48.5735 88.7973 48.5326 89.8177Z" fill="black"/>
<path fill-rule="evenodd" clip-rule="evenodd" d="M53.0378 100.496C53.602 103.116 54.1661 105.736 54.7296 108.355C55.2444 110.748 55.6433 113.242 56.7872 115.434C57.7009 117.184 59.2099 118.76 61.1447 119.33C62.9269 119.854 64.9111 119.453 66.2414 118.135C66.9687 117.415 65.8452 116.291 65.1179 117.012C63.8928 118.224 61.9906 118.2 60.5671 117.348C58.919 116.363 57.9728 114.554 57.4093 112.78C56.7858 110.813 56.4377 108.751 56.0042 106.737C55.5261 104.515 55.0481 102.295 54.57 100.073C54.3547 99.0749 52.8231 99.4978 53.0378 100.496Z" fill="black"/>
<path fill-rule="evenodd" clip-rule="evenodd" d="M67.1007 98.3139C67.9862 104.301 70.101 109.98 71.85 115.746C72.1904 116.866 72.8838 118.704 71.5118 119.405C70.2542 120.049 68.7057 119.263 67.8231 118.345C66.8769 117.361 66.3558 116.041 65.9222 114.771C65.4385 113.355 65.0121 111.921 64.6159 110.479C63.6916 107.114 62.9657 103.7 62.3006 100.275C62.1057 99.2728 60.5741 99.6979 60.7683 100.698C61.4547 104.233 62.2067 107.757 63.174 111.227C63.9776 114.106 64.7204 117.805 67.1029 119.846C68.9981 121.47 72.9417 122.022 73.794 118.952C74.1986 117.49 73.5659 115.911 73.1387 114.53C72.6155 112.836 72.0647 111.15 71.5295 109.46C70.3291 105.665 69.2162 101.837 68.6323 97.8916C68.4833 96.884 66.9525 97.3126 67.1007 98.3139Z" fill="black"/>
<path fill-rule="evenodd" clip-rule="evenodd" d="M71.6963 113.606C72.7033 115.172 74.4106 115.893 76.1978 115.202C78.0026 114.504 78.8281 112.948 78.6127 111.045C78.3515 108.728 77.382 106.559 77.0593 104.245C76.8093 102.451 76.7239 100.636 76.5819 98.8322C76.3645 96.0586 76.0234 93.3027 75.5129 90.5672C75.3258 89.5631 73.7942 89.9889 73.9806 90.9895C74.8272 95.5269 74.8781 100.114 75.527 104.667C75.6781 105.723 75.8991 106.756 76.1964 107.782C76.5798 109.107 77.1934 110.589 77.0663 111.994C76.9851 112.899 76.3503 113.489 75.5157 113.766C74.4933 114.103 73.636 113.687 73.0683 112.804C72.5168 111.947 71.1413 112.743 71.6963 113.606Z" fill="black"/>
<path fill-rule="evenodd" clip-rule="evenodd" d="M86.7258 35.2927C86.5393 37.5099 86.6792 39.742 87.1247 41.9224C87.5103 43.8099 88.0589 45.8978 89.3631 47.3757C90.5868 48.7625 92.6642 49.1551 94.2091 48.0465C95.9448 46.801 96.0662 44.4927 94.8002 42.8743C94.4478 42.4238 93.6725 42.5043 93.3018 42.8743C92.8576 43.3191 92.9487 43.92 93.3018 44.3719C93.9549 45.2066 93.3569 46.4366 92.3598 46.5792C91.2244 46.7424 90.5035 45.5038 90.1215 44.6311C88.8674 41.7643 88.5857 38.3756 88.8441 35.2927C88.9578 33.9342 86.8387 33.942 86.7258 35.2927Z" fill="black"/>
<path fill-rule="evenodd" clip-rule="evenodd" d="M93.6738 44.4397C94.8848 45.3965 96.4757 46.0398 98.0178 45.5158C99.3955 45.0484 100.513 43.7732 100.328 42.2479C100.22 41.359 99.8071 40.5822 99.0339 40.0993C98.563 39.8048 97.8463 39.9827 97.5843 40.4791C97.3089 40.9988 97.4621 41.6139 97.9642 41.9274C97.9988 41.9486 98.0327 41.9704 98.0659 41.9937C97.9402 41.8942 97.9077 41.8695 97.9684 41.9224C97.9924 41.9549 98.08 42.0566 98.1146 42.0707C98.0186 41.9408 97.9938 41.9083 98.0411 41.974C98.0581 41.998 98.0743 42.0227 98.0906 42.0481C98.1231 42.099 98.1485 42.1526 98.1781 42.2049C98.2254 42.3066 98.2141 42.2769 98.1435 42.1173C98.1577 42.1554 98.1704 42.1936 98.1824 42.2324C98.2 42.2903 98.2113 42.3503 98.2269 42.4089C98.2826 42.6137 98.2177 42.1562 98.2233 42.3687C98.2247 42.4301 98.2304 42.4909 98.2297 42.5523C98.229 42.5932 98.2269 42.6335 98.224 42.6744C98.2134 42.7888 98.2184 42.7556 98.2403 42.5749C98.2156 42.6236 98.2156 42.702 98.2007 42.7535C98.1901 42.7945 98.1435 42.8877 98.1442 42.9279C98.2141 42.7698 98.2247 42.7408 98.1767 42.8418C98.1661 42.8623 98.1562 42.8813 98.1457 42.9011C98.1308 42.9265 97.9953 43.1094 98.0023 43.1249C97.984 43.0833 98.1682 42.9336 97.9974 43.1129C97.9515 43.161 97.902 43.2054 97.854 43.2506C97.7036 43.3933 98.0496 43.12 97.8321 43.2683C97.8025 43.2881 97.4544 43.4589 97.453 43.4815C97.5928 43.4243 97.6252 43.4095 97.5497 43.4385C97.5186 43.4512 97.4869 43.4625 97.4544 43.4731C97.3802 43.4985 97.3047 43.5204 97.2277 43.5394C97.1804 43.5507 97.0286 43.555 96.9968 43.586C97.0455 43.579 97.095 43.5726 97.1444 43.5663C97.0999 43.5712 97.0547 43.574 97.0102 43.5769C96.8471 43.586 96.6861 43.5747 96.523 43.5627C96.4418 43.5536 96.4715 43.5578 96.6106 43.5733C96.559 43.5656 96.5082 43.555 96.4566 43.5437C96.3804 43.5274 96.3041 43.5077 96.2286 43.4858C96.1537 43.4639 96.0782 43.4399 96.0047 43.413C95.9546 43.3954 95.9059 43.3763 95.8571 43.3565C95.9765 43.4074 96.0005 43.4173 95.9292 43.3848C95.7774 43.3036 95.6227 43.2316 95.4758 43.1412C95.4074 43.1002 95.341 43.0564 95.276 43.0127C95.2308 42.9823 94.9512 42.7676 95.1715 42.9421C94.9427 42.7606 94.7274 42.6314 94.423 42.6314C94.1632 42.6314 93.8532 42.7479 93.6738 42.9421C93.3229 43.3241 93.2099 44.0732 93.6738 44.4397Z" fill="black"/>
<path fill-rule="evenodd" clip-rule="evenodd" d="M107.322 39.3755C109.169 42.3983 112.774 43.8642 116.211 42.9978C116.766 42.8587 117.1 42.2381 116.951 41.6951C116.796 41.1316 116.205 40.8152 115.647 40.955C114.393 41.2721 112.926 41.1697 111.818 40.6578C111.264 40.4015 110.72 40.0562 110.327 39.7059C109.819 39.2547 109.487 38.8579 109.151 38.3064C108.853 37.8192 108.202 37.6335 107.702 37.9265C107.214 38.2118 107.022 38.8861 107.322 39.3755Z" fill="black"/>
<path fill-rule="evenodd" clip-rule="evenodd" d="M73.9498 30.4388C74.0896 30.143 74.2534 29.8676 74.4356 29.5978C74.4794 29.5322 74.5401 29.4594 74.4568 29.5639C74.5203 29.4849 74.586 29.4079 74.6538 29.333C74.7625 29.2123 74.8762 29.0965 74.9941 28.9842C75.112 28.8727 75.2342 28.7653 75.362 28.6637C75.5223 28.5358 75.2271 28.7576 75.3966 28.6411C75.4637 28.5952 75.5301 28.5471 75.5978 28.5027C75.8888 28.3106 76.1931 28.1468 76.5087 28.0006C76.3866 28.0571 76.465 28.0161 76.5426 27.9865C76.6274 27.9547 76.7121 27.9229 76.7975 27.894C76.9846 27.8297 77.1746 27.774 77.366 27.7245C77.7593 27.6257 78.0255 27.5805 78.3446 27.5551C78.7648 27.5219 79.1877 27.5198 79.6086 27.5459C80.0471 27.5734 80.2278 27.601 80.6727 27.6906C81.323 27.8206 82.0764 27.5049 82.2367 26.803C82.3801 26.1711 82.0454 25.3788 81.3484 25.2397C79.3191 24.8337 77.248 24.9163 75.3373 25.7559C73.8149 26.4253 72.4712 27.644 71.7552 29.1558C71.4706 29.7553 71.5681 30.5553 72.2106 30.895C72.7762 31.1929 73.6454 31.08 73.9498 30.4388Z" fill="black"/>
<path fill-rule="evenodd" clip-rule="evenodd" d="M95.5535 20.7043C95.7702 20.4268 96.0011 20.1634 96.2539 19.9184C96.3796 19.7962 96.5095 19.679 96.6437 19.566C96.6606 19.5512 96.8414 19.4022 96.7432 19.4813C96.6274 19.5724 96.8718 19.3867 96.8951 19.3704C97.1817 19.1671 97.4811 18.9828 97.7925 18.8197C97.9479 18.7378 98.106 18.6615 98.2663 18.5895C98.4506 18.5055 98.0983 18.6537 98.2868 18.581C98.3779 18.5457 98.469 18.5111 98.5615 18.4779C98.8743 18.3664 99.1942 18.2753 99.5183 18.2025C99.6899 18.1644 99.8636 18.1362 100.037 18.1044C99.7887 18.1503 100.052 18.1037 100.104 18.0987C100.183 18.0903 100.26 18.0832 100.337 18.0776C100.688 18.0528 101.04 18.0507 101.389 18.0733C101.486 18.0797 101.584 18.0889 101.681 18.0987C101.796 18.1086 101.819 18.1199 101.691 18.098C101.884 18.1312 102.075 18.1658 102.266 18.2103C102.913 18.3586 103.672 18.0119 103.83 17.322C103.977 16.6745 103.634 15.9183 102.942 15.7587C99.6129 14.994 95.879 16.188 93.7557 18.9072C93.3476 19.4298 93.2077 20.2015 93.7557 20.7043C94.2125 21.1237 95.1164 21.2642 95.5535 20.7043Z" fill="black"/>
<path fill-rule="evenodd" clip-rule="evenodd" d="M77.9414 45.4093C75.8485 45.4093 73.7549 44.8974 71.8928 43.8354C68.4166 41.8519 66.1394 38.1802 65.8005 34.0127C65.4602 29.8353 67.1195 25.8331 70.2377 23.3073C73.4682 20.6912 77.851 19.9582 81.9627 21.3486C86.1125 22.7509 89.1834 26.0259 90.1762 30.1086C90.3139 30.677 89.9651 31.2497 89.3974 31.3888C88.8275 31.5215 88.2556 31.1777 88.1172 30.6092C87.2974 27.2361 84.7434 24.524 81.2841 23.3553C77.8658 22.2016 74.2343 22.7989 71.5708 24.954C68.9964 27.0384 67.6286 30.3607 67.9111 33.8411C68.1935 37.3109 70.0746 40.3592 72.9421 41.9953C77.0842 44.3594 82.6116 43.4336 85.8004 39.8466C86.1874 39.4095 86.8582 39.3693 87.2953 39.7583C87.7323 40.1467 87.7726 40.8161 87.3835 41.2532C84.9764 43.9625 81.4599 45.4093 77.9414 45.4093Z" fill="black"/>
<path fill-rule="evenodd" clip-rule="evenodd" d="M100.867 12.6965C94.8485 12.6965 89.9516 17.5933 89.9516 23.6115C89.9516 29.6297 94.8485 34.5259 100.867 34.5259C106.885 34.5259 111.782 29.6297 111.782 23.6115C111.782 17.5933 106.885 12.6965 100.867 12.6965ZM100.867 36.6443C93.6799 36.6443 87.8333 30.7976 87.8333 23.6115C87.8333 16.4247 93.6799 10.5781 100.867 10.5781C108.053 10.5781 113.9 16.4247 113.9 23.6115C113.9 30.7976 108.053 36.6443 100.867 36.6443Z" fill="black"/>
<path fill-rule="evenodd" clip-rule="evenodd" d="M65.591 35.6554C64.577 36.1334 63.9231 37.3818 64.0467 38.4876C64.1194 39.1372 64.3553 39.7346 64.8312 40.1999C65.2308 40.5897 65.7689 40.8835 66.3211 40.9788C67.0265 41.1009 67.7467 41.0261 68.3674 40.6462C68.8398 40.3567 69.0615 39.6845 68.7473 39.1973C68.4415 38.7235 67.8032 38.5074 67.2976 38.8174C67.2284 38.8597 67.1571 38.8979 67.0823 38.9311C67.1663 38.895 67.251 38.8597 67.335 38.8237C67.1846 38.8866 67.03 38.9275 66.8683 38.9494C66.9622 38.9367 67.0561 38.924 67.15 38.9113C66.9869 38.9296 66.8259 38.9282 66.6635 38.9078C66.7574 38.9205 66.8514 38.9332 66.9446 38.9452C66.7687 38.9198 66.5993 38.8739 66.4348 38.8061C66.5188 38.8421 66.6035 38.8774 66.6875 38.9127C66.5378 38.8477 66.398 38.7672 66.2674 38.6691C66.3387 38.7242 66.41 38.7792 66.4821 38.8343C66.3649 38.7418 66.2603 38.6387 66.1686 38.5208C66.2236 38.5914 66.2787 38.6634 66.3338 38.7348C66.2526 38.6246 66.1855 38.5081 66.1318 38.3824C66.1671 38.4664 66.2032 38.5512 66.2385 38.6359C66.1834 38.4961 66.1474 38.3542 66.1269 38.2059C66.1396 38.2998 66.1523 38.3937 66.165 38.4876C66.1474 38.3252 66.1495 38.1642 66.17 38.0018C66.158 38.0964 66.1453 38.1903 66.1325 38.2843C66.1594 38.1077 66.2067 37.9383 66.2752 37.7744C66.2392 37.8585 66.2039 37.9432 66.1686 38.0272C66.2349 37.8775 66.3161 37.7377 66.415 37.6078C66.3592 37.6791 66.3041 37.7504 66.249 37.8218C66.3415 37.7045 66.4453 37.6007 66.5626 37.5075C66.4905 37.5626 66.4192 37.6177 66.3479 37.6728C66.4461 37.5993 66.5491 37.5372 66.66 37.4849C66.8881 37.3769 67.0823 37.0853 67.1472 36.8516C67.2171 36.5981 67.1854 36.2598 67.0399 36.0353C66.8944 35.8093 66.6777 35.6102 66.4072 35.5488C66.1156 35.4824 65.8614 35.5283 65.591 35.6554Z" fill="black"/>
<path fill-rule="evenodd" clip-rule="evenodd" d="M110.638 43.3868C110.638 43.3868 115.012 42.6094 115.91 46.404C116.806 50.1994 112.078 51.1484 108.851 49.6825C108.851 49.6825 110.992 46.0354 110.638 43.3868Z" fill="#FF405A"/>
<path fill-rule="evenodd" clip-rule="evenodd" d="M102.307 53.7185C105.069 53.4389 107.706 52.2074 109.567 50.1187C111.455 48.0011 112.477 45.1957 112.388 42.3593C112.347 40.9993 110.228 40.9936 110.27 42.3593C110.341 44.6273 109.589 46.9151 108.069 48.6211C106.597 50.2727 104.516 51.3763 102.307 51.6001C101.737 51.6573 101.248 52.0457 101.248 52.6593C101.248 53.1868 101.734 53.7764 102.307 53.7185Z" fill="black"/>
<path fill-rule="evenodd" clip-rule="evenodd" d="M110.853 47.8888C110.869 47.891 110.885 47.8931 110.902 47.8952C110.808 47.8825 110.714 47.8705 110.621 47.8571C111.119 47.9248 111.613 48.0166 112.112 48.0802C112.533 48.1332 112.956 48.1296 113.379 48.1169C113.656 48.1091 113.93 48.0046 114.129 47.8069C114.311 47.6233 114.45 47.3218 114.438 47.0577C114.426 46.7845 114.336 46.4999 114.129 46.3093C113.924 46.1221 113.662 45.9908 113.379 45.9986C112.948 46.012 112.516 46.0155 112.087 45.9583C112.181 45.9703 112.275 45.983 112.368 45.9957C111.863 45.9266 111.36 45.8376 110.853 45.7705C110.604 45.7373 110.272 45.9124 110.104 46.0805C109.921 46.2641 109.782 46.5656 109.794 46.8297C109.806 47.1036 109.896 47.3875 110.104 47.5789C110.176 47.6339 110.247 47.689 110.318 47.7441C110.484 47.8401 110.662 47.8881 110.853 47.8888Z" fill="black"/>
<path fill-rule="evenodd" clip-rule="evenodd" d="M95.1012 28.2708C94.614 27.4906 94.7362 26.4575 95.3512 25.7719C96.0326 25.0107 97.3615 24.0469 99.9233 22.9948C105.951 20.5205 106.727 22.307 106.727 22.307C106.727 22.307 108.488 24.7466 101.593 27.2265C96.4224 29.085 95.527 28.9529 95.1012 28.2708Z" fill="white"/>
<path fill-rule="evenodd" clip-rule="evenodd" d="M77.9814 32.5275C77.9814 32.5275 84.2276 29.6826 85.4188 31.6668C86.8953 34.1269 81.5091 36.0913 79.4967 36.5524C77.4836 37.0142 74.5518 37.4124 74.0914 36.1485C73.631 34.8852 75.3878 33.42 77.9814 32.5275Z" fill="white"/>
<path fill-rule="evenodd" clip-rule="evenodd" d="M81.3265 31.9304C78.6771 31.9304 78.0903 35.1029 79.54 36.542C80.5561 36.3026 82.4449 35.6516 83.8755 34.7823C83.9638 33.392 83.1193 31.9304 81.3265 31.9304Z" fill="black"/>
<path fill-rule="evenodd" clip-rule="evenodd" d="M103.444 26.4691C103.588 25.0138 102.693 23.4285 100.81 23.4928C98.2162 23.5804 97.6986 26.6477 99.0862 28.0783C99.7852 27.8594 100.611 27.5784 101.594 27.226C102.299 26.9725 102.909 26.719 103.444 26.4691Z" fill="black"/>
<path fill-rule="evenodd" clip-rule="evenodd" d="M118.527 58.8323L108.671 69.1006C108.671 69.1006 106.938 68.3726 105.891 66.3397C104.844 64.3061 118.527 58.8323 118.527 58.8323Z" fill="black"/>
</svg>
