<svg width="32" height="32" viewBox="0 0 32 32" fill="none" xmlns="http://www.w3.org/2000/svg">
<rect width="32" height="32" rx="8" fill="#1F44E5"/>
<path fill-rule="evenodd" clip-rule="evenodd" d="M6.40002 23.8C6.40002 24.46 6.94002 25 7.60002 25H10C10.66 25 11.2 24.46 11.2 23.8V17.08L6.40002 19V23.8ZM13.6 17.2V23.8C13.6 24.46 14.14 25 14.8 25H17.2C17.86 25 18.4 24.46 18.4 23.8V17.8L17.2 19L13.6 17.2ZM22 14.2L20.8 15.4V23.8C20.8 24.46 21.34 25 22 25H24.4C25.06 25 25.6 24.46 25.6 23.8V15.256C25.288 15.34 24.904 15.4 24.4 15.4C22.048 15.4 22 14.2 22 14.2ZM24.4 7H20.8C20.14 7 19.6 7.54 19.6 8.2C19.6 8.86 20.14 9.4 20.8 9.4H21.508L16.96 13.936L12.94 11.932V11.944C12.772 11.86 12.592 11.8 12.4 11.8C12.208 11.8 12.028 11.86 11.872 11.932V11.92L7.07202 14.32V14.332C6.67602 14.536 6.40002 14.932 6.40002 15.4C6.40002 16.06 6.94002 16.6 7.60002 16.6C7.79202 16.6 7.97202 16.54 8.12802 16.468V16.48L12.4 14.344L16.66 16.48V16.468C16.828 16.54 17.008 16.6 17.2 16.6C17.536 16.6 17.836 16.468 18.052 16.252L23.2 11.092V11.8C23.2 12.46 23.74 13 24.4 13C25.06 13 25.6 12.46 25.6 11.8V8.2C25.6 7.54 25.06 7 24.4 7Z" fill="white"/>
</svg>
