<svg width="32" height="32" viewBox="0 0 32 32" fill="none" xmlns="http://www.w3.org/2000/svg">
<rect width="32" height="32" rx="8" fill="#1F44E5"/>
<path fill-rule="evenodd" clip-rule="evenodd" d="M24.865 21.3075L15.637 13.6272L16.921 12.3092C17.329 11.9018 16.777 11.5543 17.065 10.7994C18.121 8.19939 21.157 7.98372 21.157 7.98372C21.157 7.98372 21.589 7.54039 22.009 7.12103C18.085 5.46753 15.433 7.0731 14.245 8.11552L10.141 12.3092L9.28901 13.1719C8.82101 13.6511 8.82101 14.4299 9.28901 14.9092L8.44901 15.7719C7.98101 15.2926 7.22501 15.2926 6.75701 15.7719C6.28901 16.2512 6.28901 17.03 6.75701 17.5093L8.44901 19.2466C8.91701 19.7259 9.67301 19.7259 10.141 19.2466C10.609 18.7674 10.609 17.9886 10.141 17.5093L10.993 16.6466C11.461 17.1259 12.217 17.1259 12.685 16.6466L13.645 15.6641L21.313 24.8541C22.297 25.8367 23.881 25.8367 24.865 24.8541C25.837 23.8716 25.837 22.278 24.865 21.3075Z" fill="white"/>
</svg>
