<svg width="231" height="133" viewBox="0 0 231 133" fill="none" xmlns="http://www.w3.org/2000/svg">
<path fill-rule="evenodd" clip-rule="evenodd" d="M99.7031 131.032C128.906 131.38 168.401 132.677 196.274 132.403C201.858 132.349 207.569 132.213 212.798 130.254C219.427 127.771 224.874 122.306 227.335 115.669C228.976 111.242 229.319 106.455 229.625 101.743C230.972 80.9785 229.399 50.8992 229.956 30.0976C230.125 23.8024 230.166 17.1339 226.977 11.7041C223.734 6.18129 217.863 2.01402 211.533 1.04723C197.051 -1.1665 184.93 0.682091 171.024 1.56314C131.473 4.06883 72.5915 -0.323139 32.964 0.211259C27.2409 0.28739 21.4357 0.431522 15.9505 2.06872C10.4661 3.70591 5.25147 7.03943 2.56617 12.0951C0.147708 16.649 0.0139237 22.0314 0.0131845 27.1876C0.00948884 50.6257 -0.342341 80.4958 2.84483 103.715C3.69853 109.931 4.76807 116.391 8.43494 121.482C15.6637 131.519 34.1407 132.703 46.5073 132.962C64.8845 133.348 81.3259 130.646 99.7031 131.032Z" fill="#F82DAD"/>
<path fill-rule="evenodd" clip-rule="evenodd" d="M147.889 132.129C132.426 131.781 117.052 131.242 99.7045 131.036C96.3266 130.961 93.0079 130.999 89.7335 131.101C76.5251 131.183 64.211 132.699 51.1135 132.957C46.3386 122.595 42.0221 111.987 40.1299 104.034C40.1299 104.034 24.1497 106.872 11.37 114.685L7.40817 119.903C4.55509 115.092 3.60899 109.304 2.84768 103.717C1.48027 93.7897 0.763307 82.6516 0.393738 71.3198C6.89077 64.1871 20.9566 51.8953 37.7498 53.307C62.2671 55.3692 103.312 51.5782 103.312 51.5782C103.312 51.5782 137.105 38.3394 144.334 40.9198L147.682 88.1426L142.345 93.9745L134.725 96.7248C134.725 96.7248 134.888 97.0271 135.183 97.5667C135.937 110.029 140.845 121.781 147.889 132.129Z" fill="#00D100"/>
<path fill-rule="evenodd" clip-rule="evenodd" d="M129.508 124.9L115.057 131.3C110.083 131.19 104.99 131.102 99.7055 131.035C99.3211 131.028 98.9442 131.02 98.5672 131.013L123.683 118.411L129.508 124.9Z" fill="#2D2D2D"/>
<path fill-rule="evenodd" clip-rule="evenodd" d="M153.728 132.406C146.157 132.322 138.773 132.145 131.303 131.959C130.377 131.934 129.442 131.909 128.507 131.884C115.547 113.947 115.252 96.5569 115.252 96.5569C119.235 97.1297 135.547 96.3721 135.547 96.3721C136.204 109.728 147.067 124.524 153.728 132.406Z" fill="#2D2D2D"/>
<path fill-rule="evenodd" clip-rule="evenodd" d="M67.4964 81.824L118.12 111.319L115.614 99.4695L73.4605 78.2784L67.4964 81.824Z" fill="#B1B1B1"/>
<path fill-rule="evenodd" clip-rule="evenodd" d="M118.696 46.0638C110.974 56.6911 110.687 73.9633 110.687 73.9633C109.138 73.5169 106.351 73.7438 106.351 73.7438L106.359 50.4181C109.188 49.3566 113.71 47.7143 118.696 46.0638Z" fill="#B1B1B1"/>
<path fill-rule="evenodd" clip-rule="evenodd" d="M112.725 48.1101C108.7 55.7986 107.344 64.9773 106.35 73.7442C104.667 73.5003 102.948 73.4914 101.264 73.7272C100.574 70.9902 99.8665 68.2199 98.5191 65.7438C97.1716 63.2684 95.0747 61.079 92.3879 60.2113C89.1712 59.1669 85.6344 60.161 82.6113 61.6681C81.4154 62.258 80.2113 62.9905 79.5794 64.1613L81.9712 57.1202C82.3083 55.4705 83.3017 54.106 84.5567 52.9441C95.4539 52.304 103.31 51.5796 103.31 51.5796C103.31 51.5796 107.251 50.0385 112.725 48.1101Z" fill="#2D2D2D"/>
<path fill-rule="evenodd" clip-rule="evenodd" d="M62.5271 82.5299C54.5096 88.7697 44.7751 104.456 41.8356 110.04C41.1534 107.918 40.5724 105.904 40.1267 104.035C40.1267 104.035 39.899 104.077 39.4696 104.162C43.7396 95.5802 56.8771 82.5299 56.8771 82.5299H62.5271Z" fill="#B1B1B1"/>
<path fill-rule="evenodd" clip-rule="evenodd" d="M77.6091 131.522C77.1885 131.539 76.7672 131.565 76.3378 131.59C72.9887 127.705 71.1143 123.692 69.4778 119.494C67.6411 114.785 66.593 109.675 65.465 104.749C64.5552 100.774 62.5743 89.2237 63.6017 85.1732C63.7451 84.6174 65.3941 85.4948 65.4251 86.3064C65.8191 96.7511 68.0069 107.482 69.5399 112.899C71.7573 120.735 73.8195 125.585 77.6091 131.522Z" fill="#00AE00"/>
<path fill-rule="evenodd" clip-rule="evenodd" d="M142.007 94.3386C142.007 94.3386 124.592 90.7967 120.128 74.0944C115.874 58.1748 123.118 47.761 127.952 43.2139C135.034 41.2344 141.594 39.938 144.331 40.9151L147.682 88.141L142.007 94.3386Z" fill="#2D2D2D"/>
<path fill-rule="evenodd" clip-rule="evenodd" d="M38.9915 55.4655C38.5111 61.6891 31.7553 58.7843 27.7344 59.4273C23.9278 60.0334 20.5574 62.1769 17.4234 64.4387C12.9073 67.6909 8.42809 71.5862 6.73546 76.8932C5.05022 82.1928 6.46198 87.9877 8.56114 93.1461C9.57376 95.6156 10.7786 98.2395 10.3055 100.871C9.86941 103.325 8.06591 105.276 6.33633 107.072C5.51588 107.915 4.68066 108.772 3.77151 109.519C3.39455 107.597 3.11368 105.646 2.84759 103.717C1.48018 93.7899 0.763216 82.6511 0.393646 71.3201C6.89068 64.1874 20.9565 51.8881 37.7498 53.2999C38.1563 53.3368 38.5628 53.3738 38.9767 53.3959C39.0359 54.1277 39.0432 54.8299 38.9915 55.4655Z" fill="#2D2D2D"/>
<path fill-rule="evenodd" clip-rule="evenodd" d="M127.517 71.0363C127.517 71.0363 124.14 50.772 136.383 44.4398C148.625 38.1069 172.267 24.809 185.354 15.0989C198.441 5.38959 205.407 7.92188 207.096 11.2997C208.784 14.6769 209.417 19.9543 200.552 26.2865C200.552 26.2865 175.992 43.4649 173.795 46.4865C173.795 46.4865 175.443 46.8989 176.404 47.9973C176.404 47.9973 183.547 43.4649 190.551 56.6504C190.551 56.6504 195.633 52.6672 200.303 61.3195C204.972 69.9734 207.856 73.2692 203.874 77.9391C199.89 82.6082 196.595 89.0639 186.706 86.3165C186.706 86.3165 183.409 89.4756 180.662 88.6514C180.662 88.6514 183.684 95.9312 176.267 99.3645C168.85 102.799 147.287 93.733 145.777 90.1622C145.777 90.1622 132.469 90.6404 127.517 71.0363Z" fill="#FFA3AD"/>
<path fill-rule="evenodd" clip-rule="evenodd" d="M92.7369 34.4708C88.1106 25.4304 85.0505 21.0739 75.4772 17.0818C69.7112 14.6767 63.7936 14.5325 55.9321 14.775C51.1425 14.9221 45.5021 16.4499 41.4546 19.0147C36.0168 22.4591 35.2377 31.1868 35.3397 33.2254C35.4417 35.2521 35.3678 37.2581 35.3235 39.3041C35.2244 43.8882 35.135 46.9955 35.2658 51.5797C35.4011 56.3139 35.1668 61.0495 35.3072 65.783C35.3508 67.2553 35.3952 68.7285 35.4388 70.2016C35.4388 70.2126 35.9946 83.9023 35.0781 96.5659C34.1608 109.233 31.1665 119.813 41.7296 112.979C55.156 104.291 53.5366 89.9661 51.2541 79.97L50.1129 79.2649C50.7441 76.2337 51.8772 73.2335 54.5677 71.9356C56.5205 70.9924 58.8118 71.2304 60.9649 71.4899C65.15 71.9932 73.5732 72.7612 73.602 73.7443C73.602 73.7546 75.7019 76.4059 75.7026 76.4162C75.7078 76.7555 75.2429 84.9984 72.0823 92.5524C64.6592 110.294 68.6749 116.429 76.478 118.625C82.1731 120.227 84.0852 112.052 85.4002 106.079C85.8045 104.405 86.024 102.675 86.0831 100.972C86.2598 95.8667 86.1866 91.3092 85.6175 86.2327C84.7157 78.2042 84.4659 69.7448 87.4195 63.5397C90.3731 57.3361 96.7282 53.5451 103.312 51.5789C97.607 44.8239 95.6395 40.143 92.7369 34.4708Z" fill="black"/>
<path fill-rule="evenodd" clip-rule="evenodd" d="M59.0674 81.9988C59.0674 81.9988 65.6901 84.4172 70.6519 81.0364C75.613 77.6556 75.7024 76.4161 75.7024 76.4161C75.7024 76.4161 75.154 42.5147 72.2588 34.0116C69.3636 25.5078 57.6556 27.352 55.9282 32.0647C54.2009 36.7775 53.1276 30.6308 48.593 29.4016C44.0584 28.1717 40.1861 32.1512 39.7145 39.74C39.2429 47.3302 41.5468 61.7013 44.5344 71.4882C47.5228 81.2759 53.1225 84.5872 59.0674 81.9988Z" fill="#FFA3AD"/>
<path fill-rule="evenodd" clip-rule="evenodd" d="M38.7555 37.7549C38.1701 44.651 38.3697 51.6182 39.3224 58.473C40.253 65.1733 41.5997 72.98 45.1779 78.8348C51.7643 89.6136 68.3905 80.5259 74.3864 73.8042C75.3333 72.7428 73.7707 71.1692 72.818 72.2365C69.1009 76.4045 63.1707 79.9856 57.693 81.2355C54.8828 81.8763 50.5751 81.3752 48.2896 79.2635C46.1195 77.2582 45.2052 73.8241 44.3737 71.1108C41.0793 60.3622 40.0224 48.941 40.9729 37.7549C41.0934 36.3328 38.876 36.3409 38.7555 37.7549Z" fill="black"/>
<path fill-rule="evenodd" clip-rule="evenodd" d="M45.5024 46.6788C44.8911 46.8355 44.319 47.1326 43.6989 47.2501C43.0787 47.3684 42.3521 47.259 41.9722 46.7557C41.6241 46.2937 41.6751 45.6181 41.9715 45.1222C42.2679 44.6262 42.7646 44.2825 43.279 44.0179C45.4004 42.9284 48.0169 42.9905 50.2025 43.9462C50.9077 44.2544 51.6084 44.6839 51.9713 45.3631C52.335 46.0424 52.2293 47.0173 51.5737 47.4209C50.8707 47.8533 49.9756 47.4741 49.2018 47.1866C48.0339 46.752 46.7449 46.3587 45.5024 46.6788Z" fill="white"/>
<path fill-rule="evenodd" clip-rule="evenodd" d="M65.5504 45.7239C64.8238 45.7778 64.1032 45.9086 63.4032 46.1119C62.9028 46.2575 62.4091 46.4408 61.8909 46.4918C61.3728 46.5421 60.8111 46.4408 60.4326 46.0823C59.9714 45.647 59.8886 44.9034 60.137 44.3188C60.3853 43.7348 60.9108 43.3024 61.4896 43.0423C62.0691 42.7828 62.7033 42.6749 63.3315 42.5847C65.3723 42.2898 67.4914 42.1501 69.4649 42.7488C70.1087 42.9432 70.7407 43.2226 71.2388 43.675C71.7378 44.1258 72.0911 44.7689 72.0815 45.4415C72.0726 46.1141 71.6483 46.7927 71.0053 46.993C70.0244 47.2975 68.9808 46.5118 68.0997 46.1851C67.2667 45.8761 66.4507 45.6559 65.5504 45.7239Z" fill="white"/>
<path fill-rule="evenodd" clip-rule="evenodd" d="M69.2238 43.2896C69.4914 43.1825 69.8033 43.2172 70.0627 43.3443C70.3214 43.4707 70.5328 43.6814 70.6976 43.9186C71.303 44.7856 70.2113 45.8485 69.314 45.411C68.5475 45.037 68.3235 43.6488 69.2238 43.2896Z" fill="black"/>
<path fill-rule="evenodd" clip-rule="evenodd" d="M50.0902 44.4972C50.3585 44.3893 50.6697 44.4248 50.9291 44.5512C51.1878 44.6776 51.3992 44.889 51.564 45.1255C52.1694 45.9925 51.0777 47.0554 50.1803 46.6178C49.4146 46.2445 49.1906 44.8557 50.0902 44.4972Z" fill="black"/>
<path fill-rule="evenodd" clip-rule="evenodd" d="M56.7955 55.4821C56.7688 54.4872 55.2211 54.4835 55.2477 55.4821C55.2492 55.5464 55.4657 59.7299 53.6837 56.8569C53.3555 56.3291 52.6866 56.3912 52.3466 56.8569C51.8174 57.5834 51.5764 59.3322 50.4669 57.7542C49.5829 56.4962 50.7789 53.6276 51.3384 52.4435C52.4523 50.0812 54.0148 47.8859 55.4798 45.7343C56.0423 44.9087 54.7015 44.1333 54.1434 44.953C51.7981 48.3967 47.5392 53.5884 48.9739 58.1659C49.2851 59.1585 49.9399 60.1623 51.0671 60.2126C52.1492 60.2621 52.6334 59.4756 53.0842 58.6493C53.6962 59.3478 54.4834 59.8696 55.4724 59.5518C57.1887 59.0018 56.8317 56.8657 56.7955 55.4821Z" fill="black"/>
<path fill-rule="evenodd" clip-rule="evenodd" d="M51.1636 63.149C51.1636 63.149 62.737 63.7802 67.5067 58.0282C67.5067 58.0282 69.0877 59.5996 70.5645 60.5272C70.7493 63.3079 67.7462 68.2365 62.8775 70.3733C54.2495 74.1607 50.6026 67.4271 51.1636 63.149Z" fill="black"/>
<path fill-rule="evenodd" clip-rule="evenodd" d="M66.314 59.2253C66.1507 59.9438 65.8158 60.6319 65.3753 61.2255C64.5623 62.326 63.4136 63.1302 62.2177 63.7999C60.8008 64.5952 59.2693 65.188 57.6897 65.5612C56.2832 65.8872 54.8278 66.0402 53.3828 65.9633C52.7796 65.9345 51.9947 65.9064 51.2962 65.7342C51.1047 64.8443 51.0567 63.9536 51.1617 63.1502C51.1617 63.1502 61.0491 63.6853 66.314 59.2253Z" fill="white"/>
<path fill-rule="evenodd" clip-rule="evenodd" d="M70.5637 60.5268C70.7167 62.8817 68.6013 66.7489 65.0121 69.1799C65.2323 68.1466 65.5479 67.1407 65.9116 66.1554C66.409 64.8442 67.0129 63.5906 67.7402 62.3932C68.2761 61.5032 68.9169 60.6133 69.7019 59.9244C69.9798 60.144 70.2762 60.345 70.5637 60.5268Z" fill="#FF7483"/>
<path fill-rule="evenodd" clip-rule="evenodd" d="M66.0763 56.5041C66.7977 59.0615 68.8628 61.0468 71.4639 61.6241C72.4344 61.8392 72.849 60.3469 71.8756 60.131C69.7905 59.6691 68.1511 58.1546 67.5694 56.0924C67.2988 55.1352 65.805 55.5417 66.0763 56.5041Z" fill="black"/>
<path fill-rule="evenodd" clip-rule="evenodd" d="M43.6585 50.5859C45.3061 51.5541 47.2626 51.3479 48.9552 50.6117C49.8658 50.2156 49.0786 48.8814 48.1739 49.2754C46.9987 49.7869 45.5751 49.917 44.4398 49.2495C43.5794 48.7439 42.7989 50.081 43.6585 50.5859Z" fill="black"/>
<path fill-rule="evenodd" clip-rule="evenodd" d="M62.1654 49.5319C64.2949 50.9828 66.9802 51.0796 69.2412 49.8748C70.1215 49.4062 69.3402 48.0691 68.4607 48.5377C66.6609 49.4964 64.6201 49.3352 62.9467 48.1948C62.1218 47.633 61.3465 48.9731 62.1654 49.5319Z" fill="black"/>
<path fill-rule="evenodd" clip-rule="evenodd" d="M58.0969 42.288C61.7224 41.1808 65.0263 38.9249 68.3258 37.1007C69.575 36.4111 68.4581 34.4953 67.2068 35.1864C64.1017 36.9026 60.916 39.1082 57.5078 40.1497C56.1463 40.5658 56.7265 42.7064 58.0969 42.288Z" fill="black"/>
<path fill-rule="evenodd" clip-rule="evenodd" d="M51.4263 40.1563C49.0995 40.432 46.0816 39.4763 44.1561 38.1725C42.9713 37.3705 41.8603 39.2908 43.037 40.0868C45.2759 41.6028 48.724 42.6938 51.4263 42.3737C52.8262 42.2074 52.8432 39.9885 51.4263 40.1563Z" fill="black"/>
<path fill-rule="evenodd" clip-rule="evenodd" d="M24.2896 92.7311L31.6116 86.4861L37.4256 93.7001L29.1347 101.883L24.2896 92.7311Z" fill="#004758"/>
<path fill-rule="evenodd" clip-rule="evenodd" d="M14.8674 122.896C13.7225 122.973 12.582 122.637 11.5509 122.135C8.86189 120.826 6.83221 118.418 5.45002 115.766C3.70344 112.416 2.88669 108.529 3.49278 104.8C3.68865 103.597 4.03901 102.397 4.71975 101.385C6.04577 99.4173 8.42506 98.4261 9.9913 96.6426C11.1784 95.2907 11.8318 93.5641 12.7542 92.0193C14.313 89.4079 17.039 87.1705 20.0717 87.3871C22.2019 87.5386 24.0519 88.8491 25.752 90.1426C30.0405 93.4074 34.3437 97.1142 36.2396 102.16C36.8568 103.802 37.1916 105.646 36.6062 107.299C36.0208 108.953 34.2839 110.283 32.5661 109.929C32.5217 111.227 33.2949 112.491 33.0576 113.767C32.8566 114.852 31.9326 115.7 30.8942 116.072C29.8557 116.444 28.7167 116.413 27.6212 116.28C27.1645 116.225 26.6626 116.162 26.2753 116.412C25.7971 116.72 25.6995 117.359 25.5169 117.898C24.9943 119.442 23.3483 120.525 21.7229 120.393C20.116 120.263 19.2505 119.894 17.9999 121.125C17.0508 122.059 16.3198 122.798 14.8674 122.896Z" fill="#FFA3AD"/>
<path fill-rule="evenodd" clip-rule="evenodd" d="M54.4244 83.5962C54.4244 90.7584 48.6177 96.5658 41.4547 96.5658C34.2917 96.5658 28.485 90.7584 28.485 83.5962C28.485 76.4332 34.2917 70.6257 41.4547 70.6257C48.6177 70.6257 54.4244 76.4332 54.4244 83.5962Z" fill="#FFB000"/>
<path fill-rule="evenodd" clip-rule="evenodd" d="M10.538 110.209C12.2372 113.135 14.3002 115.796 16.712 118.169C17.4851 118.93 18.6766 117.739 17.9027 116.978C15.59 114.702 13.6216 112.164 11.9918 109.359C11.4478 108.422 9.99173 109.269 10.538 110.209Z" fill="black"/>
<path fill-rule="evenodd" clip-rule="evenodd" d="M18.13 108.336C19.7717 110.271 21.5803 112.038 23.5538 113.633C24.3898 114.308 25.5887 113.124 24.7453 112.442C22.7711 110.846 20.9624 109.08 19.3208 107.145C18.6193 106.318 17.433 107.513 18.13 108.336Z" fill="black"/>
<path fill-rule="evenodd" clip-rule="evenodd" d="M24.3441 102.108C26.1262 103.951 35.5059 113.251 30.9446 115.551C29.9771 116.04 30.8286 117.493 31.7946 117.006C38.5615 113.593 28.2224 103.695 25.5349 100.918C24.7795 100.137 23.5895 101.329 24.3441 102.108Z" fill="black"/>
<path fill-rule="evenodd" clip-rule="evenodd" d="M177.508 57.6317C179.656 63.8072 182.637 71.8032 177.532 77.2307C176.001 78.8583 174.201 80.2797 172.545 81.7794C171.393 82.8238 170.021 84.4824 168.38 84.648C165.554 84.9333 162.958 82.3441 161.451 80.3647C160.802 79.5132 159.339 80.3514 159.996 81.2139C161.84 83.6354 164.162 86.535 167.533 86.4559C171.011 86.3754 173.581 83.0396 175.953 80.9523C178.93 78.332 181.622 75.8227 182.06 71.6657C182.566 66.8569 180.684 61.6482 179.132 57.1845C178.778 56.1675 177.151 56.6043 177.508 57.6317Z" fill="black"/>
<path fill-rule="evenodd" clip-rule="evenodd" d="M190.084 58.549C191.224 61.2476 192.375 63.9425 193.505 66.6448C194.865 69.8985 195.423 71.2947 193.912 74.8078C193.319 76.1871 192.493 77.5641 191.738 78.8598C190.119 81.639 188.232 84.9983 185.313 86.6052C181.847 88.5137 177.796 87.2283 174.309 86.1108C173.274 85.7796 172.832 87.405 173.861 87.7346C177.389 88.8655 181.307 90.0437 184.941 88.6357C188.374 87.3045 190.55 84.0227 192.404 81.0233C194.358 77.8657 197.118 73.9512 196.516 70.0337C195.884 65.9204 193.143 61.4967 191.538 57.6997C191.118 56.7041 189.667 57.5615 190.084 58.549Z" fill="black"/>
<path fill-rule="evenodd" clip-rule="evenodd" d="M169.075 49.4772C170.93 48.4203 175.27 46.3765 176.029 49.8734C176.259 50.9326 177.883 50.4839 177.653 49.4255C177.29 47.7535 175.898 46.6212 174.246 46.2997C172.087 45.8813 170.033 46.993 168.225 48.0226C167.283 48.5592 168.131 50.0153 169.075 49.4772Z" fill="black"/>
<path fill-rule="evenodd" clip-rule="evenodd" d="M120.319 26.0413C119.921 26.0413 119.544 26.1773 119.258 26.4227C118.925 26.7088 118.741 27.1234 118.741 27.5891V31.2973C118.741 32.1799 119.42 32.8451 120.32 32.8451C120.718 32.8451 121.095 32.7091 121.381 32.4637C121.714 32.1777 121.897 31.763 121.897 31.2973V27.5891C121.897 26.7065 121.219 26.0413 120.319 26.0413Z" fill="white"/>
<path fill-rule="evenodd" clip-rule="evenodd" d="M124.255 24.5118C124.879 24.5524 125.67 24.5813 126.461 24.6108C127.24 24.6389 128.018 24.6677 128.63 24.7077C129.183 24.7357 129.666 24.5155 129.955 24.0809C130.271 23.6093 130.304 22.9603 130.042 22.4281C129.784 21.91 129.302 21.5922 128.717 21.5537C128.093 21.5131 127.302 21.4835 126.511 21.4547C125.732 21.4259 124.954 21.3978 124.341 21.3579C124.304 21.3557 124.267 21.3549 124.229 21.3549C123.724 21.3549 123.287 21.5796 123.018 21.9839C122.702 22.4562 122.669 23.1052 122.931 23.6374C123.187 24.1555 123.669 24.4733 124.255 24.5118Z" fill="white"/>
<path fill-rule="evenodd" clip-rule="evenodd" d="M112.06 24.6099H115.878C116.759 24.6099 117.425 23.9314 117.425 23.0311C117.425 22.6327 117.29 22.2558 117.044 21.9705C116.758 21.6378 116.344 21.4538 115.878 21.4538H112.06C111.178 21.4538 110.513 22.1323 110.513 23.0326C110.513 23.9321 111.178 24.6099 112.06 24.6099Z" fill="white"/>
<path fill-rule="evenodd" clip-rule="evenodd" d="M119.34 20.8723C119.866 21.1435 120.515 21.1206 120.998 20.8131C121.444 20.5278 121.685 20.0429 121.659 19.4849L121.486 15.3768C121.509 15.2334 121.517 15.09 121.496 14.9584L121.452 14.5585L121.451 14.5593C121.336 13.6228 120.538 13.101 119.783 13.101C119.74 13.101 119.697 13.1032 119.653 13.1069C118.818 13.1741 118.261 13.8179 118.299 14.6731C118.37 16.2963 118.442 17.9179 118.504 19.544C118.53 20.1257 118.835 20.6106 119.34 20.8723Z" fill="white"/>
<path fill-rule="evenodd" clip-rule="evenodd" d="M201.8 103.133C202.699 103.133 203.377 102.468 203.377 101.586V97.8773C203.377 96.9948 202.698 96.3303 201.799 96.3303C201.401 96.3303 201.024 96.4656 200.738 96.7117C200.405 96.997 200.221 97.4109 200.221 97.8773V101.586C200.221 102.051 200.405 102.467 200.739 102.752C201.025 102.997 201.402 103.133 201.8 103.133Z" fill="white"/>
<path fill-rule="evenodd" clip-rule="evenodd" d="M198.408 103.787H198.407C197.788 103.745 197.003 103.717 196.216 103.688C195.433 103.659 194.65 103.631 194.033 103.59C193.478 103.556 192.998 103.783 192.708 104.216C192.393 104.689 192.359 105.338 192.623 105.87C192.878 106.388 193.36 106.706 193.946 106.743C194.573 106.785 195.371 106.815 196.167 106.843C196.941 106.872 197.714 106.901 198.321 106.94C198.36 106.942 198.397 106.944 198.433 106.944C199.239 106.944 199.851 106.366 199.904 105.533C199.957 104.726 199.412 103.852 198.408 103.787Z" fill="white"/>
<path fill-rule="evenodd" clip-rule="evenodd" d="M210.776 104.17C210.49 103.837 210.076 103.654 209.61 103.654H205.792C204.911 103.654 204.245 104.333 204.245 105.233C204.245 106.131 204.911 106.81 205.792 106.81H209.61C210.493 106.81 211.158 106.131 211.158 105.231C211.158 104.833 211.023 104.457 210.776 104.17Z" fill="white"/>
<path fill-rule="evenodd" clip-rule="evenodd" d="M202.778 107.393C202.253 107.122 201.603 107.144 201.12 107.453C200.674 107.738 200.432 108.222 200.458 108.782L200.632 112.891C200.61 113.032 200.603 113.173 200.623 113.311L200.666 113.707H200.667C200.782 114.643 201.58 115.164 202.335 115.164C202.377 115.164 202.421 115.163 202.464 115.159C203.298 115.091 203.856 114.446 203.818 113.591C203.747 111.969 203.676 110.347 203.614 108.721C203.588 108.14 203.283 107.655 202.778 107.393Z" fill="white"/>
<path fill-rule="evenodd" clip-rule="evenodd" d="M20.1121 34.8849C21.0116 34.8849 21.6894 34.2205 21.6894 33.3379V29.6289C21.6894 28.7464 21.0101 28.0819 20.1106 28.0819C19.2111 28.0819 18.5333 28.7464 18.5333 29.6289V33.3379C18.5333 33.8036 18.7166 34.2175 19.0499 34.5043C19.3367 34.7497 19.7137 34.8849 20.1121 34.8849Z" fill="white"/>
<path fill-rule="evenodd" clip-rule="evenodd" d="M16.1039 35.5382C15.4801 35.4976 14.6892 35.468 13.8983 35.4392C13.1193 35.4111 12.3417 35.3822 11.729 35.3423C11.1739 35.3128 10.6927 35.5352 10.4037 35.9684C10.0881 36.4407 10.0555 37.0897 10.3179 37.6218C10.5744 38.14 11.0563 38.4578 11.6425 38.4962C12.2678 38.5369 13.0616 38.5665 13.8562 38.5953C14.6316 38.6241 16.0928 38.6951 16.1298 38.6951C16.6354 38.6951 17.0729 38.4696 17.342 38.0661C17.6576 37.5938 17.6908 36.9448 17.4277 36.4126C17.172 35.8945 16.6893 35.5766 16.1039 35.5382Z" fill="white"/>
<path fill-rule="evenodd" clip-rule="evenodd" d="M27.9236 35.4054H24.1052C23.2234 35.4054 22.5582 36.0847 22.5582 36.9849C22.5582 37.3826 22.6935 37.7596 22.9396 38.0449C23.2256 38.3782 23.6396 38.5623 24.1052 38.5623H27.9236C28.8054 38.5623 29.4706 37.8837 29.4706 36.9835C29.4706 36.0839 28.8054 35.4054 27.9236 35.4054Z" fill="white"/>
<path fill-rule="evenodd" clip-rule="evenodd" d="M20.2283 39.6338C19.3435 39.6737 18.7315 40.336 18.7707 41.2082L18.9444 45.3156C18.9222 45.459 18.9141 45.6009 18.9348 45.7347L18.9784 46.1205V46.1257C18.9784 46.1264 18.9791 46.1279 18.9791 46.1286L18.9799 46.1382H18.9814C19.0981 47.0718 19.8942 47.5914 20.6474 47.5914C20.691 47.5914 20.7346 47.5899 20.7775 47.5862C21.6127 47.5182 22.1685 46.8744 22.1301 46.0192C22.0599 44.3968 21.9889 42.7744 21.9268 41.1483C21.8803 40.1172 21.0236 39.6064 20.2283 39.6338Z" fill="white"/>
<path fill-rule="evenodd" clip-rule="evenodd" d="M160.657 73.0025C162.694 72.8051 164.249 71.25 164.45 69.2144C164.556 68.136 162.871 68.1441 162.766 69.2144C162.662 70.2714 161.713 71.216 160.657 71.3187C159.588 71.4222 159.577 73.1074 160.657 73.0025Z" fill="black"/>
</svg>
