<?xml version="1.0" encoding="UTF-8"?>
<svg width="64px" height="64px" viewBox="0 0 64 64" version="1.1" xmlns="http://www.w3.org/2000/svg" xmlns:xlink="http://www.w3.org/1999/xlink">
    <title>default/pay/spot/successscreen_lowbalance</title>
    <g id="Participant" stroke="none" stroke-width="1" fill="none" fill-rule="evenodd">
        <g id="pay/spot/spot_successscreen_lowbalance" transform="translate(-0.000200, -0.000233)">
            <path d="M0,45.5173333 C0.16,50.4843333 0.888,55.0123333 4.899,59.6023333 C7.5,62.0023333 11.424,63.8403333 17.001,64.0003333 L46.503,64.0003333 C48.766,63.9323333 55.003,63.3323333 59.003,60.0033333 C63.926,55.9053333 64,50.5643333 64,47.6413333 L64,42.3723333 L64,21.0393333 L64,17.5453333 C64,17.5453333 64,4.30433333 52.503,1.00033333 C49.913,0.256333333 45.631,0.114333333 43.003,0.0453333333 L32.002,0.0453333333 C28.127,-0.0566666667 24.661,0.0453333333 21.803,0.0453333333 C14.02,0.0453333333 9.883,0.822333333 5.791,4.30533333 C2.031,7.50133333 0.274,11.2203333 0,17.0433333 L0,45.5173333 Z" id="Fill-1" fill="#00AED6"></path>
            <path d="M14.1562,23.7615333 C14.1562,23.7615333 21.3262,18.3895333 29.2462,17.8755333 C37.1682,17.3625333 44.7222,19.1555333 49.4522,24.2155333 C49.4522,24.2155333 41.3332,35.0655333 33.4782,34.4615333 C25.6222,33.8585333 14.1562,23.7615333 14.1562,23.7615333" id="Fill-4" fill="#77101B"></path>
            <path d="M21.4912,30.7634333 C21.9622,32.9464333 24.7282,34.4234333 27.6702,34.0624333 C30.6122,33.7024333 32.6162,31.6404333 32.1452,29.4584333 C31.6742,27.2754333 28.9082,25.7974333 25.9662,26.1584333 C23.0242,26.5184333 21.0202,28.5804333 21.4912,30.7634333" id="Fill-6" fill="#FFB11C"></path>
            <polygon id="Fill-8" fill="#F07B21" points="32.1933 28.6067333 32.2083 30.2657333 31.5243 29.5027333"></polygon>
            <polygon id="Fill-10" fill="#F07B21" points="21.4297 30.3196333 21.4207 28.6446333 21.8637 29.6806333"></polygon>
            <path d="M21.4805,29.5007333 C21.9515,31.6837333 24.7185,33.1617333 27.6595,32.8007333 C30.6015,32.4397333 32.6055,30.3787333 32.1345,28.1957333 C31.6635,26.0137333 28.8975,24.5347333 25.9555,24.8967333 C23.0135,25.2557333 21.0105,27.3177333 21.4805,29.5007333" id="Fill-12" fill="#FFD31C"></path>
            <path d="M35.5307,25.2546333 C35.3307,27.4786333 37.5317,29.7126333 40.4477,30.2436333 C43.3637,30.7746333 45.8887,29.4026333 46.0897,27.1796333 C46.2897,24.9546333 44.0887,22.7226333 41.1727,22.1906333 C38.2567,21.6596333 35.7307,23.0306333 35.5307,25.2546333" id="Fill-14" fill="#FFB11C"></path>
            <polygon id="Fill-16" fill="#F07B21" points="46.3896 26.3821333 45.9096 27.9691333 45.4836 27.0391333"></polygon>
            <polygon id="Fill-18" fill="#F07B21" points="35.604 24.8127333 36.094 23.2097333 36.208 24.3317333"></polygon>
            <path d="M35.8965,24.0461333 C35.6955,26.2701333 37.8975,28.5051333 40.8135,29.0361333 C43.7285,29.5671333 46.2555,28.1951333 46.4555,25.9721333 C46.6555,23.7471333 44.4555,21.5141333 41.5385,20.9821333 C38.6235,20.4511333 36.0975,21.8231333 35.8965,24.0461333" id="Fill-20" fill="#FFD31C"></path>
            <path d="M31.0708,35.2708333 C31.6218,37.8278333 34.8628,39.5588333 38.3098,39.1358333 C41.7578,38.7138333 44.1038,36.2978333 43.5518,33.7408333 C43.0008,31.1838333 39.7588,29.4528333 36.3128,29.8748333 C32.8648,30.2978333 30.5188,32.7138333 31.0708,35.2708333" id="Fill-22" fill="#F07B21"></path>
            <polygon id="Fill-24" fill="#F07B21" points="43.6094 32.7449333 43.6264 34.6859333 42.8254 33.7939333"></polygon>
            <polygon id="Fill-26" fill="#F07B21" points="30.998 34.7498333 30.988 32.7878333 31.506 34.0008333"></polygon>
            <path d="M31.0586,33.7917333 C31.6096,36.3487333 34.8506,38.0797333 38.2976,37.6567333 C41.7446,37.2347333 44.0916,34.8197333 43.5406,32.2617333 C42.9886,29.7037333 39.7466,27.9737333 36.3006,28.3957333 C32.8526,28.8187333 30.5066,31.2337333 31.0586,33.7917333" id="Fill-28" fill="#FFD31C"></path>
            <path d="M13.9546,27.3352333 L12.3686,37.5322333 C11.2426,44.7712333 16.3346,51.5572333 23.6166,52.3732333 C28.8336,52.9582333 35.0666,53.1432333 41.2816,52.1132333 C48.3526,50.9402333 53.0336,44.1062333 51.7536,37.0532333 L50.0416,27.6322333 L32.5936,34.8102333 L27.7276,34.9612333 L16.3936,27.1782333 L13.9546,27.3352333 Z" id="Fill-30" fill="#B92029"></path>
            <path d="M40.3144,24.1550333 C37.7424,25.1650333 34.3264,23.3250333 32.6834,20.0470333 C31.0394,16.7670333 31.7934,13.2900333 34.3654,12.2810333 C36.9374,11.2710333 40.3544,13.1110333 41.9974,16.3900333 C43.6394,19.6680333 42.8874,23.1460333 40.3144,24.1550333" id="Fill-32" fill="#FFB11C"></path>
            <polygon id="Fill-34" fill="#F07B21" points="35.208 11.6487333 33.489 12.7687333 34.743 12.9517333"></polygon>
            <polygon id="Fill-36" fill="#F07B21" points="40.8149 23.9143333 42.5469 22.7773333 41.1759 23.0293333"></polygon>
            <path d="M41.623,23.3010333 C39.051,24.3110333 35.634,22.4720333 33.99,19.1940333 C32.348,15.9130333 33.101,12.4370333 35.673,11.4280333 C38.246,10.4180333 41.662,12.2580333 43.305,15.5360333 C44.948,18.8150333 44.195,22.2920333 41.623,23.3010333" id="Fill-38" fill="#FFD31C"></path>
            <path d="M22.9873,28.8738333 C25.4443,30.1378333 29.0293,28.6518333 30.9933,25.5548333 C32.9593,22.4588333 32.5603,18.9238333 30.1043,17.6598333 C27.6463,16.3968333 24.0623,17.8818333 22.0963,20.9798333 C20.1313,24.0758333 20.5303,27.6098333 22.9873,28.8738333" id="Fill-40" fill="#FFB11C"></path>
            <polygon id="Fill-42" fill="#F07B21" points="29.3286 16.9460333 30.9266 18.2330333 29.6606 18.2890333"></polygon>
            <polygon id="Fill-44" fill="#F07B21" points="22.5141 28.5847333 20.9041 27.2767333 22.2431 27.6677333"></polygon>
            <path d="M21.772,27.8933333 C24.229,29.1573333 27.814,27.6703333 29.779,24.5753333 C31.744,21.4783333 31.345,17.9433333 28.888,16.6793333 C26.432,15.4143333 22.847,16.9013333 20.881,19.9983333 C18.917,23.0953333 19.315,26.6293333 21.772,27.8933333" id="Fill-46" fill="#FFD31C"></path>
            <path d="M14.0146,21.8420333 L10.2946,25.7330333 C9.8516,26.1960333 9.9166,26.9460333 10.4336,27.3250333 L13.1046,29.2890333 C13.5266,29.5980333 14.1086,29.5550333 14.4816,29.1900333 L15.2976,28.3860333 C15.7646,27.9280333 16.5236,27.9970333 16.9086,28.5260333 C18.6296,30.8870333 23.5936,36.4450333 32.2756,36.5480333 C40.6626,36.6470333 45.7096,31.8960333 47.6456,29.6130333 C48.1176,29.0570333 48.9866,29.1240333 49.3656,29.7470333 C49.6676,30.2450333 50.3166,30.4070333 50.8176,30.1090333 L53.4796,28.5260333 C54.0646,28.1780333 54.1766,27.3790333 53.7126,26.8830333 L50.5946,23.5610333 C50.1566,23.0960333 49.4106,23.1140333 49.0036,23.6060333 C46.7976,26.2790333 39.9666,33.6790333 32.1606,33.4020333 C24.3706,33.1250333 17.7816,24.9230333 15.6456,21.9550333 C15.2566,21.4140333 14.4756,21.3600333 14.0146,21.8420333" id="Fill-48" fill="#DBDBDB"></path>
        </g>
    </g>
</svg>