<svg width="28" height="28" viewBox="0 0 28 28" fill="none" xmlns="http://www.w3.org/2000/svg">
<path fill-rule="evenodd" clip-rule="evenodd" d="M23.4379 20.7895L20.1024 17.4416C20.9769 16.0799 21.4891 14.4685 21.4891 12.7445C21.4891 7.91006 17.579 4 12.7445 4C7.91006 4 4 7.91006 4 12.7445C4 17.579 7.91006 21.4891 12.7445 21.4891C14.4809 21.4891 16.0924 20.9644 17.4416 20.1024L20.7895 23.4379C21.1268 23.7751 21.6015 23.9875 22.1137 23.9875C23.1505 23.9875 23.9875 23.1505 23.9875 22.1137C23.9875 21.6015 23.7751 21.1268 23.4379 20.7895ZM12.7445 18.9906C9.29669 18.9906 6.49844 16.1924 6.49844 12.7445C6.49844 9.29669 9.29669 6.49844 12.7445 6.49844C16.1924 6.49844 18.9906 9.29669 18.9906 12.7445C18.9906 16.1924 16.1924 18.9906 12.7445 18.9906Z" fill="#fff"/>
</svg>
