<?xml version="1.0" encoding="UTF-8"?>
<svg width="64px" height="64px" viewBox="0 0 64 64" version="1.1" xmlns="http://www.w3.org/2000/svg" xmlns:xlink="http://www.w3.org/1999/xlink">
    <title>default/common/spot/thumbs_up</title>
    <g id="Participant" stroke="none" stroke-width="1" fill="none" fill-rule="evenodd">
        <g id="common/spot/spot_thumbs_up" transform="translate(-0.000100, -0.000078)">
            <path d="M0,45.5167778 C0.16,50.4837778 0.888,55.0127778 4.899,59.6027778 C7.5,62.0017778 11.424,63.8397778 17.001,63.9997778 L46.503,63.9997778 C48.766,63.9317778 55.003,63.3317778 59.003,60.0027778 C63.926,55.9057778 64,50.5647778 64,47.6407778 L64,42.3717778 L64,21.0387778 L64,17.5447778 C64,17.5447778 64,4.30377778 52.503,0.999777778 C49.913,0.255777778 45.631,0.114777778 43.002,0.0457777778 L32.002,0.0457777778 C28.127,-0.0572222222 24.661,0.0457777778 21.803,0.0457777778 C14.02,0.0457777778 9.883,0.822777778 5.791,4.30477778 C2.031,7.50177778 0.274,11.2197778 0,17.0427778 L0,45.5167778 Z" id="Fill-1" fill="#F30097"></path>
            <path d="M16.177,38.8663778 L21.792,37.3803778 C21.792,37.3803778 22.197,33.8373778 24.783,31.6583778 C27.37,29.4783778 28.978,25.4073778 27.664,20.8073778 C26.351,16.2083778 28.549,14.1033778 31.218,14.8773778 C33.887,15.6533778 36.981,24.6643778 35.046,28.1043778 C35.046,28.1043778 44.099,26.5653778 46.794,25.9493778 C49.489,25.3343778 54.137,29.4913778 49.262,32.3073778 C49.262,32.3073778 52.075,31.9663778 52.651,34.5283778 C53.228,37.0913778 50.991,39.0063778 50.991,39.0063778 C50.991,39.0063778 53.821,39.7503778 53.992,41.7973778 C54.163,43.8423778 51.481,45.5453778 51.481,45.5453778 C51.481,45.5453778 52.664,45.4183778 52.867,47.4583778 C53.07,49.4993778 51.285,50.1373778 45.137,51.6143778 C38.99,53.0903778 29.255,55.7503778 24.856,52.3373778 L18.36,53.8003778 C17.645,53.9613778 16.938,53.5083778 16.797,52.8013778 L14.546,41.4383778 C14.319,40.2933778 15.031,39.1703778 16.177,38.8663778" id="Fill-4" fill="#F8A9AF"></path>
            <path d="M42.0064,15.6446778 L43.8754,15.0966778 C45.2274,14.7016778 46.2854,13.6426778 46.6804,12.2946778 L47.2254,10.4226778 C47.3934,9.85967778 48.1914,9.85967778 48.3534,10.4226778 L48.9034,12.2946778 C49.2954,13.6426778 50.3564,14.7016778 51.7054,15.0966778 L53.5774,15.6446778 C54.1414,15.8066778 54.1414,16.6066778 53.5774,16.7696778 L51.7054,17.3166778 C50.3564,17.7146778 49.2954,18.7726778 48.9034,20.1216778 L48.3534,21.9926778 C48.1914,22.5576778 47.3934,22.5576778 47.2254,21.9926778 L46.6804,20.1216778 C46.2854,18.7726778 45.2274,17.7146778 43.8754,17.3166778 L42.0064,16.7696778 C41.4434,16.6066778 41.4434,15.8066778 42.0064,15.6446778" id="Fill-6" fill="#FFD51C"></path>
            <path d="M10.2818,13.7628778 L11.5278,13.3978778 C12.4288,13.1348778 13.1348,12.4278778 13.3978,11.5308778 L13.7608,10.2818778 C13.8738,9.90687778 14.4058,9.90687778 14.5138,10.2818778 L14.8798,11.5308778 C15.1408,12.4278778 15.8488,13.1348778 16.7478,13.3978778 L17.9958,13.7628778 C18.3718,13.8708778 18.3718,14.4048778 17.9958,14.5138778 L16.7478,14.8778778 C15.8488,15.1428778 15.1408,15.8488778 14.8798,16.7468778 L14.5138,17.9948778 C14.4058,18.3708778 13.8738,18.3708778 13.7608,17.9948778 L13.3978,16.7468778 C13.1348,15.8488778 12.4288,15.1428778 11.5278,14.8778778 L10.2818,14.5138778 C9.9068,14.4048778 9.9068,13.8708778 10.2818,13.7628778" id="Fill-8" fill="#FFD51C"></path>
            <path d="M12.284,29.8458778 L13.53,29.4808778 C14.431,29.2168778 15.137,28.5108778 15.4,27.6128778 L15.763,26.3648778 C15.876,25.9888778 16.407,25.9888778 16.516,26.3648778 L16.882,27.6128778 C17.143,28.5108778 17.851,29.2168778 18.75,29.4808778 L19.998,29.8458778 C20.374,29.9538778 20.374,30.4868778 19.998,30.5958778 L18.75,30.9598778 C17.851,31.2258778 17.143,31.9308778 16.882,32.8298778 L16.516,34.0768778 C16.407,34.4538778 15.876,34.4538778 15.763,34.0768778 L15.4,32.8298778 C15.137,31.9308778 14.431,31.2258778 13.53,30.9598778 L12.284,30.5958778 C11.908,30.4868778 11.908,29.9538778 12.284,29.8458778" id="Fill-10" fill="#FFD51C"></path>
            <path d="M42.2425,35.5880778 C44.4985,35.0320778 46.6945,34.3020778 48.9025,33.5840778 C49.4165,33.4170778 49.7485,32.8920778 49.6015,32.3540778 C49.4625,31.8510778 48.8865,31.4870778 48.3705,31.6550778 C46.1635,32.3730778 43.9665,33.1040778 41.7105,33.6590778 C41.1865,33.7880778 40.8715,34.3790778 41.0125,34.8900778 C41.1595,35.4230778 41.7165,35.7180778 42.2425,35.5880778" id="Fill-12" fill="#D18070"></path>
            <path d="M44.2608,41.7071778 C46.4648,41.3061778 48.6558,40.8401778 50.8568,40.4251778 C51.3878,40.3241778 51.6898,39.6851778 51.5558,39.1941778 C51.4028,38.6381778 50.8578,38.3951778 50.3248,38.4961778 C48.1238,38.9121778 45.9328,39.3771778 43.7298,39.7781778 C43.1978,39.8751778 42.8968,40.5201778 43.0308,41.0091778 C43.1848,41.5671778 43.7278,41.8041778 44.2608,41.7071778" id="Fill-14" fill="#D18070"></path>
            <path d="M45.9099,47.9981778 C47.7229,47.5271778 49.5429,47.1021778 51.3459,46.5931778 C51.8489,46.4511778 52.2109,45.8791778 52.0439,45.3631778 C51.8779,44.8511778 51.3529,44.5121778 50.8139,44.6641778 C49.0109,45.1751778 47.1909,45.5991778 45.3779,46.0691778 C44.8719,46.2011778 44.5149,46.7911778 44.6799,47.3001778 C44.8489,47.8211778 45.3669,48.1391778 45.9099,47.9981778" id="Fill-16" fill="#D18070"></path>
        </g>
    </g>
</svg>