<?xml version="1.0" encoding="UTF-8"?>
<svg width="64px" height="64px" viewBox="0 0 64 64" version="1.1" xmlns="http://www.w3.org/2000/svg" xmlns:xlink="http://www.w3.org/1999/xlink">
    <title>default/pay/spot/on_process_transfer</title>
    <g id="Participant" stroke="none" stroke-width="1" fill="none" fill-rule="evenodd">
        <g id="pay/spot/spot_on_process_transfer">
            <path d="M0,45.4334222 C0.16,50.3918222 0.8864,54.9134222 4.8912,59.4942222 C7.4864,61.8894222 11.4032,63.7246222 16.9696,63.8830222 L46.4192,63.8830222 C48.6768,63.8142222 54.904,63.2174222 58.8976,59.8942222 C63.8096,55.8030222 63.8848,50.4718222 63.8848,47.5534222 L63.8848,42.2958222 L63.8848,20.9998222 L63.8848,17.5134222 C63.8848,17.5134222 63.8848,4.29582222 52.408,0.998222222 C49.8224,0.255822222 45.5488,0.113422222 42.9248,0.0462222222 L31.944,0.0462222222 C28.0768,-0.0577777778 24.616,0.0462222222 21.7648,0.0462222222 C13.9952,0.0462222222 9.8656,0.820622222 5.7808,4.29582222 C2.0272,7.48782222 0.2736,11.1998222 0,17.0110222 L0,45.4334222 Z" id="Fill-1" fill="#FFD51C"></path>
            <polygon id="Fill-3" fill="#000000" points="35.24144 13.9630222 28.71664 13.9406222 28.71664 16.9150222 35.22704 16.9374222"></polygon>
            <path d="M47.0304,20.8459022 L43.8416,17.9659022 C43.3824,17.5483022 42.6704,17.5867022 42.2704,18.0491022 L41.04,19.4219022 L45.888,23.8107022 L47.104,22.4347022 C47.52,21.9739022 47.4896,21.2619022 47.0304,20.8459022" id="Fill-5" fill="#006880"></path>
            <path d="M39.03744,14.4817574 L24.77184,14.4353422 C24.14944,14.4353422 23.64544,13.9265422 23.64544,13.3041422 L23.64544,10.6017422 C23.65984,9.98094222 24.16544,9.47534222 24.78784,9.47852712 L39.05184,9.52334222 C39.67424,9.52654222 40.17984,10.0337422 40.17984,10.6545422 L40.16544,13.3585422 C40.16544,13.9809422 39.65984,14.4849422 39.03744,14.4817574" id="Fill-7" fill="#006880"></path>
            <path d="M50.8711219,35.4131022 C50.84064,45.9363022 42.33024,54.4371022 31.87424,54.4051923 C21.42144,54.3699022 12.96864,45.8115022 13.0132627,35.2899022 C13.04224,24.7667022 21.53984,16.2659022 31.99424,16.2978122 C42.46304,16.3331022 50.90144,24.8915022 50.8711219,35.4131022" id="Fill-9" fill="#004656"></path>
            <path d="M46.3038642,35.3990222 C46.27344,43.3782222 39.82384,49.8262222 31.88944,49.799108 C23.95664,49.7718222 17.55024,43.2838222 17.5805323,35.3030222 C17.60944,27.3238222 24.06064,20.8774222 31.99344,20.9029462 C39.91184,20.9286222 46.31824,27.4182222 46.3038642,35.3990222" id="Fill-11" fill="#33BEDE"></path>
            <path d="M30.83744,23.3630222 C30.83744,23.8974222 30.82304,24.4350222 30.82304,24.9678222 C30.82304,26.7646222 33.61024,26.7678222 33.62464,24.9678222 L33.62464,23.3630222 C33.62464,21.5662222 30.83744,21.5630222 30.83744,23.3630222" id="Fill-13" fill="#004656"></path>
            <path d="M44.00544,33.8990222 C43.47104,33.8974222 42.93824,33.8958222 42.41824,33.8942112 C40.60864,33.8878222 40.60864,36.6782222 42.41824,36.6846222 C42.93824,36.6862222 43.47104,36.6878222 44.00544,36.6910284 C45.79904,36.6958222 45.81344,33.9054222 44.00544,33.8990222" id="Fill-15" fill="#004656"></path>
            <path d="M42.27024,29.4286222 C41.94384,29.5966222 41.61744,29.7662222 41.29104,29.9358222 C40.49104,30.3470222 41.18704,31.5502222 41.98864,31.1390222 C42.31504,30.9710222 42.63984,30.8030222 42.96784,30.6334222 C43.76784,30.2222222 43.07024,29.0174222 42.27024,29.4286222" id="Fill-17" fill="#B3E7F3"></path>
            <path d="M38.19216,24.9567822 C37.98576,25.2639822 37.79216,25.5743822 37.58416,25.8815822 C37.09456,26.6335822 38.29616,27.3343822 38.78576,26.5871822 C38.99216,26.2767822 39.20016,25.9695822 39.39376,25.6607822 C39.89776,24.9087822 38.68176,24.2095822 38.19216,24.9567822" id="Fill-19" fill="#B3E7F3"></path>
            <path d="M34.11488,35.3583822 C34.11488,36.5663822 33.13568,37.5439822 31.93408,37.5391998 C30.73408,37.5343822 29.75488,36.5535822 29.76928,35.3439822 C29.76928,34.1359822 30.74848,33.1599822 31.94848,33.1647646 C33.15008,33.1679822 34.11488,34.1503822 34.11488,35.3583822" id="Fill-21" fill="#006880"></path>
            <polygon id="Fill-23" fill="#006880" points="37.79216 31.3459022 35.98256 29.5123022 30.89616 34.5923022 32.70576 36.4291022"></polygon>
            <path d="M39.2304,28.0895822 C38.7264,27.5839822 37.9104,27.5823822 37.4064,28.0831822 L30.8976,34.5919822 L32.7056,36.4271822 L39.216,29.9183822 C39.72,29.4175822 39.72,28.5967822 39.2304,28.0895822" id="Fill-25" fill="#006880"></path>
            <path d="M31.9344,36.7459022 C33.7296,36.7459022 33.744,33.9571022 31.9344,33.9571022 C30.1408,33.9571022 30.1408,36.7459022 31.9344,36.7459022" id="Fill-27" fill="#004656"></path>
        </g>
    </g>
</svg>