<svg width="208" height="125" viewBox="0 0 208 125" fill="none" xmlns="http://www.w3.org/2000/svg">
<path fill-rule="evenodd" clip-rule="evenodd" d="M111.569 6.44472C88.0235 6.46206 58.3508 6.68606 34.8202 5.82539C26.5908 5.52472 17.5115 6.04006 10.6975 11.3034C3.62749 16.7647 1.30616 25.9087 0.756824 34.514C-0.565176 55.226 0.204158 76.036 0.406824 96.776C0.521491 108.529 10.1915 120.59 23.3862 122.64C36.2795 124.643 52.2022 124.252 65.2055 124.322C106.988 124.547 139.551 124.948 178.064 122.957C180.934 122.807 189 122.486 191.765 121.63C196.806 120.1 201.599 116.986 204.067 112.263C206.29 108.008 206.413 102.979 206.414 98.1614C206.418 75.9127 208.874 53.6127 205.857 31.4461C205.012 25.2321 203.094 18.9301 198.911 14.3174C187.523 1.75739 167.207 5.42872 152.355 5.91206C140.531 6.29739 123.383 6.43606 111.569 6.44472Z" fill="#E642AA"/>
<path fill-rule="evenodd" clip-rule="evenodd" d="M45.699 34.3063C49.9984 27.7443 62.3804 36.5583 66.709 40.4957C73.0177 46.223 76.3183 47.499 76.3183 47.499L127.822 48.889C128.984 40.3043 134.99 29.4197 141.766 30.279C148.529 31.151 149.63 38.079 147.392 45.235C145.154 52.4037 145.28 66.0697 144.522 84.969C143.75 103.856 127.818 116.999 127.818 116.999L129.154 124.418C111.581 125.043 98.291 124.668 79.2517 124.404L79.557 116.582C70.0663 114.666 64.0724 114.923 59.217 105.479C54.3504 96.023 58.239 90.987 58.239 90.987C58.239 90.987 55.3817 90.4177 53.953 84.969C52.5244 79.533 55.3817 75.525 55.3817 75.525C55.3817 75.525 52.5244 75.2224 50.7924 69.5077C49.0857 63.7804 54.5224 55.7657 54.5224 55.7657C54.5224 55.7657 51.7257 51.4077 47.8164 46.1957C47.8164 46.1957 42.6044 39.0297 45.699 34.3063Z" fill="#F9A7AD"/>
<path fill-rule="evenodd" clip-rule="evenodd" d="M96.796 115.137C92.304 115.213 87.8107 115.29 83.318 115.366C81.2194 115.401 81.212 118.668 83.318 118.632C87.8107 118.556 92.304 118.48 96.796 118.403C98.8953 118.368 98.902 115.101 96.796 115.137Z" fill="black"/>
<path fill-rule="evenodd" clip-rule="evenodd" d="M125.772 108.473L80.3039 109.341C75.8553 109.426 72.0106 105.489 71.5939 100.421L64.2826 11.484C63.8413 6.12204 67.3939 1.58338 72.1006 1.49338L125.363 0.477375C130.135 0.386042 134.138 4.90004 134.109 10.34L133.626 99.4267C133.599 104.425 130.157 108.39 125.772 108.473Z" fill="#004656"/>
<path fill-rule="evenodd" clip-rule="evenodd" d="M104.12 5.01407L88.5229 5.4714C87.3922 5.50474 86.5089 6.30874 86.5502 7.2674C86.5909 8.22607 87.5416 8.97673 88.6722 8.94407L104.27 8.48607C105.4 8.4534 106.284 7.64873 106.243 6.69007C106.202 5.7314 105.251 4.98074 104.12 5.01407Z" fill="#006880"/>
<path fill-rule="evenodd" clip-rule="evenodd" d="M111.219 4.75526C110.225 4.78059 109.455 5.57792 109.497 6.53659C109.54 7.49525 110.381 8.25192 111.375 8.22725C112.37 8.20192 113.141 7.40459 113.098 6.44592C113.055 5.48726 112.214 4.72992 111.219 4.75526Z" fill="#006880"/>
<path fill-rule="evenodd" clip-rule="evenodd" d="M119.881 11.584L76.802 12.7634C71.2207 13.308 70.6207 17.88 70.9047 21.3534L76.8447 94.676C77.1174 99.0867 80.0581 101.21 84.8527 100.98L121.45 100.11C125.767 99.7987 128.385 97.4627 128.437 92.1354L128.739 19.4727C128.749 15.954 127.096 11.584 119.881 11.584Z" fill="#E5E5E5"/>
<path fill-rule="evenodd" clip-rule="evenodd" d="M78.13 37.5443C83.484 37.367 88.842 37.3177 94.1967 37.225C101.473 37.099 108.75 36.981 116.026 36.843C118.418 36.7977 120.811 36.7623 123.202 36.683C123.743 36.665 123.752 35.7997 123.207 35.8177C117.853 35.995 112.495 36.0443 107.14 36.1377C99.864 36.2637 92.5873 36.381 85.3107 36.519C82.9193 36.5643 80.5267 36.5997 78.1353 36.679C77.594 36.697 77.5853 37.5623 78.13 37.5443Z" fill="#A4A4A4"/>
<path fill-rule="evenodd" clip-rule="evenodd" d="M79.4481 49.7595C84.8021 49.5822 89.4934 49.5329 94.8487 49.4402C102.125 49.3142 108.735 49.1962 116.011 49.0582C118.403 49.0129 120.795 48.9775 123.187 48.8982C123.728 48.8802 123.737 48.0149 123.192 48.0329C117.837 48.2102 113.146 48.2595 107.792 48.3529C100.515 48.4789 93.2394 48.5962 85.9627 48.7342C83.5707 48.7795 81.8447 48.8149 79.4534 48.8942C78.9121 48.9122 78.9034 49.7775 79.4481 49.7595Z" fill="#A4A4A4"/>
<path fill-rule="evenodd" clip-rule="evenodd" d="M80.7664 62.4629C86.1204 62.2856 90.1451 62.2362 95.4998 62.1436C102.776 62.0176 109.386 61.8996 116.662 61.7616C119.054 61.7162 120.78 61.6809 123.171 61.6016C123.712 61.5836 123.722 60.7182 123.177 60.7362C117.822 60.9136 113.798 60.9629 108.443 61.0562C101.167 61.1822 94.5571 61.2996 87.2804 61.4376C84.8891 61.4829 83.1631 61.5182 80.7718 61.5976C80.2304 61.6156 80.2217 62.4809 80.7664 62.4629Z" fill="#A4A4A4"/>
<path fill-rule="evenodd" clip-rule="evenodd" d="M81.4991 75.4926C86.8531 75.3153 90.8778 75.2659 96.2331 75.1733C103.509 75.0473 108.119 74.9292 115.395 74.7912C117.787 74.7459 120.18 74.7106 122.571 74.6312C123.112 74.6132 123.121 73.7479 122.576 73.7659C117.222 73.9432 114.53 73.9926 109.176 74.0852C101.9 74.2119 95.9565 74.3292 88.6798 74.4672C86.2885 74.5126 83.8958 74.5479 81.5045 74.6272C80.9631 74.6452 80.9545 75.5106 81.4991 75.4926Z" fill="#A4A4A4"/>
<path fill-rule="evenodd" clip-rule="evenodd" d="M57.6242 76.4167C60.0529 75.8734 62.4115 74.8867 64.4815 73.5014C66.5209 72.1367 68.7449 70.3254 69.7862 68.0481C72.1669 62.8434 69.9202 56.9267 67.7449 52.0774C67.3842 51.2727 66.2135 51.0801 65.5102 51.4914C64.6822 51.9761 64.5622 52.9181 64.9242 53.7254C65.8689 55.8307 66.7349 57.9881 67.2095 60.2534C67.6369 62.2894 67.7702 64.7261 66.8462 66.6541C65.9949 68.4314 64.1182 69.8667 62.4915 70.9034C60.7195 72.0334 58.8049 72.8087 56.7555 73.2667C54.7055 73.7261 55.5735 76.8747 57.6242 76.4167Z" fill="black"/>
<path fill-rule="evenodd" clip-rule="evenodd" d="M67.1626 71.0169C68.9232 73.5509 69.3459 76.7309 68.8586 79.7396C68.6059 81.2989 68.2306 83.1149 67.3699 84.4656C66.6226 85.6369 65.1612 86.173 63.9239 86.653C63.1019 86.9723 62.5326 87.7503 62.7832 88.6623C62.9986 89.447 63.9652 90.1236 64.7919 89.8029C66.5426 89.1229 68.3899 88.3869 69.6186 86.8949C70.9632 85.2616 71.5872 82.9549 71.9566 80.9049C72.6646 76.9843 72.3099 72.7183 69.9826 69.3683C69.4806 68.6449 68.5519 68.3123 67.7486 68.7823C67.0326 69.2009 66.6572 70.2889 67.1626 71.0169Z" fill="black"/>
<path fill-rule="evenodd" clip-rule="evenodd" d="M67.1742 88.6589C68.2136 89.0915 69.3163 89.5769 69.9356 90.5635C70.5596 91.5609 70.8449 92.7535 70.8836 93.8949C70.9656 96.2255 70.1029 98.5169 68.4236 100.182C66.9289 101.665 69.2382 103.974 70.7329 102.492C73.0796 100.164 74.3869 96.7762 74.1263 93.4675C73.9936 91.7842 73.5496 90.0362 72.5703 88.6369C71.4409 87.0235 69.8063 86.2442 68.0429 85.5089C67.2283 85.1702 66.2463 85.8755 66.0336 86.6495C65.7749 87.5902 66.3562 88.3175 67.1742 88.6589Z" fill="black"/>
<path fill-rule="evenodd" clip-rule="evenodd" d="M21.0323 37.1882C21.4097 37.3389 20.7303 37.0509 21.169 37.2442C21.3737 37.3349 21.5783 37.4235 21.783 37.5142C22.3577 37.7702 22.931 38.0302 23.503 38.2915C25.1003 39.0195 26.6923 39.7562 28.2843 40.4942C31.595 42.0295 34.901 43.5749 38.205 45.1235C38.935 45.4655 39.6643 45.8075 40.3943 46.1502C41.9383 46.8762 43.2943 44.5775 41.7403 43.8482C36.2403 41.2635 30.7383 38.6802 25.211 36.1535C24.0617 35.6289 22.915 35.0842 21.741 34.6169C21.0723 34.3502 20.277 34.9082 20.1017 35.5482C19.893 36.3069 20.361 36.9202 21.0323 37.1882Z" fill="white"/>
<path fill-rule="evenodd" clip-rule="evenodd" d="M21.3872 76.6309C25.8725 76.3656 30.3565 76.0996 34.8419 75.8343C35.4872 75.7956 36.1332 75.7569 36.7785 75.7196C38.4845 75.6176 38.4959 72.9503 36.7785 73.0529C32.2932 73.3183 27.8092 73.5843 23.3239 73.8496C22.6785 73.8883 22.0325 73.9256 21.3872 73.9643C19.6812 74.0649 19.6699 76.7322 21.3872 76.6309Z" fill="white"/>
<path fill-rule="evenodd" clip-rule="evenodd" d="M43.1157 98.0808C39.1983 100.853 35.281 103.627 31.3637 106.4L29.6997 107.577C29.113 107.993 28.8357 108.741 29.2217 109.401C29.561 109.983 30.455 110.298 31.0463 109.88C34.963 107.107 38.8803 104.334 42.7977 101.561L44.4617 100.383C45.0483 99.9681 45.3257 99.2194 44.9397 98.5594C44.601 97.9788 43.707 97.6628 43.1157 98.0808Z" fill="white"/>
<path fill-rule="evenodd" clip-rule="evenodd" d="M167.655 61.1609C173.151 59.7135 178.648 58.2662 184.144 56.8182C184.934 56.6102 185.723 56.4029 186.512 56.1949C188.17 55.7582 187.467 53.1855 185.803 53.6235C180.307 55.0709 174.809 56.5189 169.313 57.9662C168.524 58.1742 167.735 58.3822 166.946 58.5895C165.287 59.0262 165.991 61.5989 167.655 61.1609Z" fill="white"/>
<path fill-rule="evenodd" clip-rule="evenodd" d="M170.338 84.3275C172.35 84.6822 174.362 85.0369 176.375 85.3922C177.059 85.5122 177.844 85.2075 178.015 84.4602C178.162 83.8115 177.818 82.9502 177.083 82.8202C175.072 82.4655 173.059 82.1109 171.046 81.7562C170.362 81.6355 169.576 81.9395 169.407 82.6869C169.259 83.3369 169.603 84.1982 170.338 84.3275Z" fill="white"/>
<path fill-rule="evenodd" clip-rule="evenodd" d="M157.194 105.12C163.282 108.504 169.369 111.889 175.456 115.273C176.305 115.745 177.155 116.217 178.005 116.69C179.506 117.525 180.852 115.222 179.351 114.387C173.264 111.003 167.176 107.619 161.089 104.235C160.239 103.762 159.39 103.29 158.541 102.817C157.04 101.983 155.693 104.285 157.194 105.12Z" fill="white"/>
<path fill-rule="evenodd" clip-rule="evenodd" d="M123.09 49.8249L133.825 62.7129V52.9016L123.09 49.8249Z" fill="black"/>
<path fill-rule="evenodd" clip-rule="evenodd" d="M174.861 35.5505C171.762 51.7885 156.085 62.4392 139.847 59.3392C123.609 56.2392 112.958 40.5625 116.059 24.3245C119.158 8.0865 134.835 -2.5635 151.072 0.536503C167.311 3.63584 177.961 19.3125 174.861 35.5505Z" fill="#00AA13"/>
<path fill-rule="evenodd" clip-rule="evenodd" d="M141.658 43.1325C140.774 43.1325 139.89 42.7952 139.215 42.1205C137.866 40.7718 137.866 38.5838 139.215 37.2358L156.404 20.0472C157.753 18.6978 159.939 18.6978 161.288 20.0472C162.638 21.3958 162.638 23.5838 161.288 24.9318L144.1 42.1205C143.425 42.7952 142.542 43.1325 141.658 43.1325Z" fill="white"/>
<path fill-rule="evenodd" clip-rule="evenodd" d="M141.635 43.1325C140.751 43.1325 139.867 42.7951 139.193 42.1205L129.623 32.5511C128.274 31.2031 128.274 29.0151 129.623 27.6665C130.973 26.3171 133.159 26.3171 134.509 27.6665L144.077 37.2358C145.427 38.5838 145.427 40.7718 144.077 42.1205C143.403 42.7951 142.519 43.1325 141.635 43.1325Z" fill="white"/>
<path fill-rule="evenodd" clip-rule="evenodd" d="M115.368 41.9005L113.057 36.1438C112.777 35.4478 111.945 35.2471 111.414 35.7478L106.952 39.9518C106.31 40.5565 106.585 41.6865 107.421 41.8778L109.129 42.2698L109.294 42.3071C108.484 46.1198 107.774 48.8291 107.327 50.3951C106.562 50.6291 105.939 51.2671 105.694 52.1038C103.892 52.2198 101.88 51.9378 100.012 51.9285C99.6523 51.4585 99.1356 51.1245 98.5236 51.0405C97.235 50.8638 96.037 51.8385 95.847 53.2185C95.7556 53.8871 95.9216 54.5258 96.259 55.0291L94.111 65.0438C93.6336 65.1871 93.2143 65.4911 92.901 65.8978C91.005 65.3178 89.1703 64.3245 87.2916 63.6218C86.9403 63.0051 86.3496 62.5538 85.623 62.4545C84.3343 62.2771 83.1363 63.2518 82.947 64.6318C82.8723 65.1711 82.9676 65.6898 83.183 66.1358C82.175 69.7371 80.931 75.2885 80.2103 77.7058C79.977 78.4891 80.1836 79.3518 80.937 79.6905C81.5816 79.9805 82.5736 79.6665 82.809 78.8778C83.4923 76.5851 84.8303 70.5725 85.727 67.4058C86.2536 67.2865 86.7243 66.9845 87.0676 66.5491C88.9743 67.1311 90.821 68.1165 92.709 68.8238C93.0623 69.4278 93.647 69.8685 94.3643 69.9671C95.6523 70.1438 96.8503 69.1691 97.0403 67.7891C97.119 67.2131 97.0023 66.6631 96.7543 66.1985C97.4916 62.7611 98.2296 59.3231 98.967 55.8858C99.4616 55.6871 99.8876 55.3258 100.17 54.8445C101.92 54.8178 105.102 55.0098 106.722 54.9978C106.981 55.1591 107.274 55.2698 107.592 55.3131C108.88 55.4905 110.078 54.5151 110.268 53.1358C110.354 52.5165 110.212 51.9271 109.924 51.4425C110.541 48.9878 111.616 44.3898 112.004 42.9285L112.338 43.0045L114.194 43.4305C115.021 43.6198 115.702 42.7311 115.368 41.9005Z" fill="#B30678"/>
<path fill-rule="evenodd" clip-rule="evenodd" d="M68.4197 53.4437C67.4051 51.057 65.3331 49.413 62.6931 49.3644C59.9031 49.3144 57.3804 50.841 55.2271 52.4657C54.5097 53.007 54.1371 53.9044 54.6291 54.7457C55.0431 55.453 56.1864 55.889 56.9097 55.3437C57.9697 54.5444 59.0944 53.8004 60.2917 53.2217C60.6037 53.0704 61.0944 52.907 61.5864 52.8024C61.7257 52.7724 62.3797 52.7117 61.8851 52.739C62.0777 52.7284 62.2684 52.703 62.4617 52.6984C62.6557 52.6944 62.8457 52.7084 63.0384 52.7157C63.3524 52.7264 62.7951 52.6537 62.9957 52.7064C63.0884 52.731 63.1858 52.741 63.2791 52.763C63.4697 52.8084 63.6491 52.877 63.8357 52.9357C63.4304 52.8077 63.9531 53.0097 64.0811 53.0877C64.1424 53.1264 64.4664 53.3724 64.1537 53.1164C64.2211 53.171 64.2871 53.227 64.3517 53.285C64.4517 53.3757 64.5477 53.4717 64.6397 53.5704C64.6664 53.599 64.9131 53.891 64.7844 53.7297C64.6584 53.571 64.9211 53.9324 64.9171 53.9264C64.9897 54.037 65.0584 54.151 65.1244 54.2664C65.2824 54.5444 65.4164 54.8324 65.5417 55.1257C65.8937 55.9544 67.1151 56.137 67.8217 55.7237C68.6791 55.2224 68.7731 54.2757 68.4197 53.4437Z" fill="black"/>
</svg>
